<svg xmlns="http://www.w3.org/2000/svg" viewBox="0 0 32 32"><path d="M30.06 15h0c.3 0 .6 0 .9 0a14.82 14.82 0 0 0-3.68-8.82l-5.72 5.72A13 13 0 0 0 30.06 15zM20.17 10.41l5.72-5.72A14.82 14.82 0 0 0 17.07 1c0 .31 0 .62 0 .93A13 13 0 0 0 20.17 10.41zM11.84 18.74L14.58 16 4.68 6.11A14.82 14.82 0 0 0 1 15.05c.32 0 .65 0 1 0A15 15 0 0 1 11.84 18.74zM30.06 17a15 15 0 0 1-9.89-3.73L17.42 16l9.89 9.9a15 15 0 0 0 3.69-9c-.3 0-.61.05-.91.05zM2 17c-.32 0-.64 0-1 0A15 15 0 0 0 4.68 25.9l5.74-5.74A13 13 0 0 0 2 17zM25.89 27.32L16 17.42l-2.74 2.74A15 15 0 0 1 17 30c0 .33 0 .66 0 1A14.82 14.82 0 0 0 25.89 27.32zM11.84 21.58L6.1 27.32A15 15 0 0 0 14.94 31c0-.32.05-.64.05-1A13 13 0 0 0 11.84 21.58zM6.1 4.69L16 14.58l2.75-2.75A15 15 0 0 1 15 1.94c0-.31 0-.63.05-.94A15 15 0 0 0 6.1 4.69z"/></svg>