<svg xmlns="http://www.w3.org/2000/svg" viewBox="0 0 24 24"><path fill="#303C42" d="M12 0C5.383 0 0 5.383 0 12s5.383 12 12 12 12-5.383 12-12S18.617 0 12 0z"/><path fill="#F57C00" d="M22.972 11.449c-1.67-.087-3.443.55-4.993 1.79a28.856 28.856 0 00-2.088-2.333c1.86-2.26 3.238-4.616 3.812-6.745a10.96 10.96 0 013.269 7.288zM22.977 12.452a10.922 10.922 0 01-2.068 5.975c-.43-1.429-1.25-2.918-2.328-4.39 1.382-1.115 2.949-1.678 4.396-1.585zM5.01 3.512a10.946 10.946 0 016.64-2.494c.901 2.496.898 4.64-.004 6.257C9.453 5.669 7.149 4.35 5.01 3.512zM12.705 1.036a10.935 10.935 0 016.15 2.375c-.431 2.08-1.791 4.477-3.692 6.79a36.347 36.347 0 00-2.705-2.321c.796-1.352 1.34-3.554.247-6.844zM4.188 4.267c2.327.837 4.714 2.18 6.917 3.796C10.064 9.281 8.415 10 6.581 10c-2.828 0-4.526-.505-5.215-.765a10.993 10.993 0 012.822-4.968z"/><path fill="#F57C00" d="M1.157 10.221c.853.308 2.605.779 5.424.779 2.152 0 4.095-.87 5.324-2.338.925.72 1.809 1.484 2.633 2.274-3.041 3.464-7.191 6.609-11.05 8.02A10.947 10.947 0 0 1 1 12c0-.607.062-1.198.157-1.779z"/><path fill="#F57C00" d="M4.204 19.75c3.927-1.531 8.017-4.636 11.056-8.093a27.78 27.78 0 0 1 1.975 2.24C15.845 15.276 15 16.989 15 18.5c0 1.785.492 3.108.822 3.801A10.923 10.923 0 0 1 12 23a10.965 10.965 0 0 1-7.796-3.25z"/><path fill="#F57C00" d="M16.742 21.91C16.464 21.335 16 20.14 16 18.5c0-1.218.692-2.624 1.839-3.797 1.17 1.631 1.982 3.242 2.28 4.693a11.04 11.04 0 01-3.377 2.514zM1.157 10.221c.853.308 2.605.779 5.424.779 2.152 0 4.095-.87 5.324-2.338.925.72 1.809 1.484 2.633 2.274-3.041 3.464-7.191 6.609-11.05 8.02A10.947 10.947 0 011 12c0-.607.062-1.198.157-1.779z"/><path d="M20.629 11.785a6.467 6.467 0 012.343-.336 10.946 10.946 0 00-2.936-6.93C20.65 5.889 21 7.403 21 9c0 .964-.137 1.893-.371 2.785zM20.909 18.427a10.922 10.922 0 002.068-5.975c-.893-.058-1.83.136-2.743.553-.272.693-.61 1.352-1.01 1.969.758 1.164 1.346 2.327 1.685 3.453zM5.671 19.11c-.49.236-.98.45-1.467.64A10.965 10.965 0 0012 23c1.345 0 2.63-.255 3.822-.699-.312-.655-.764-1.88-.813-3.52a10.92 10.92 0 01-9.338.329zM16.021 18.195c-.01.102-.021.205-.021.305 0 1.639.464 2.835.742 3.41a11.04 11.04 0 003.376-2.514c-.227-1.11-.76-2.316-1.522-3.552a11.078 11.078 0 01-2.575 2.35zM1.964 16.487c.4.891.912 1.722 1.524 2.47.342-.126.689-.28 1.034-.432a11.06 11.06 0 01-2.558-2.038z" opacity=".1"/><linearGradient id="a" x1="1.125" x2="22.875" y1="6.929" y2="17.071" gradientUnits="userSpaceOnUse"><stop offset="0" stop-color="#FFF" stop-opacity=".2"/><stop offset="1" stop-color="#FFF" stop-opacity="0"/></linearGradient><path fill="url(#a)" d="M12 0C5.383 0 0 5.383 0 12s5.383 12 12 12 12-5.383 12-12S18.617 0 12 0z"/></svg>