<svg xmlns="http://www.w3.org/2000/svg" enable-background="new 0 0 92 92" viewBox="0 0 92 92"><circle cx="14.862" cy="16.093" r="1.496" fill="#F2765D"/><circle cx="76.368" cy="15.422" r="3.065" fill="#D2EADE"/><circle cx="17.26" cy="74.953" r="1.612" fill="#82AFDD"/><path fill="#F5E1ED" d="M46.3999 34.69855c0-2.12-.85986-4.03998-2.25-5.42999-1.37988-1.38-3.30005-2.23999-5.41992-2.23999H8.67993C4.43994 27.02856 1 30.45856 1 34.69855c0 2.12.85986 4.03998 2.25 5.42999 1.38989 1.39001 3.31006 2.25 5.42993 2.25h30.05005C42.96997 42.37854 46.3999 38.93854 46.3999 34.69855zM67.90991 52.09857H29.25c-4.24023 0-7.67017 3.42999-7.67017 7.66998 0 2.12.86011 4.03998 2.25 5.41998 1.38013 1.39001 3.30005 2.25 5.42017 2.25h38.65991c4.23999 0 7.66992-3.42999 7.66992-7.66998 0-2.12-.85986-4.03998-2.25-5.41998C71.94995 52.95856 70.02979 52.09857 67.90991 52.09857zM83.32983 27.02856H67.83984c-4.23999 0-7.67993 3.42999-7.67993 7.66998s3.43994 7.67999 7.67993 7.67999h15.48999c4.23999 0 7.67017-3.44 7.67017-7.67999S87.56982 27.02856 83.32983 27.02856zM83.68994 55.68854c-1.91016 0-3.44995 1.54999-3.44995 3.46002 0 1.90997 1.53979 3.45001 3.44995 3.45001 1.90991 0 3.45996-1.54004 3.45996-3.45001C87.1499 57.23853 85.59985 55.68854 83.68994 55.68854z"/><polygon fill="#CE93C1" points="61.271 55.835 61.271 38.952 46.65 30.51 32.028 38.952 32.028 55.835 46.65 64.277"/><circle cx="46.65" cy="47.393" r="9.283" fill="#FFF"/><circle cx="46.65" cy="47.393" r="4.923" fill="#CE93C1"/><path d="M74.33496,42.82855c-2.26001,0-4.12842,1.65515-4.48901,3.81445H62.271v-8.26807l-3.51563-2.02985l4.82275-4.82391
					c1.83663,1.31902,4.30508,1.09408,5.87549-0.47632c1.77979-1.77979,1.77979-4.67578,0-6.45557
					c-1.78352-1.78352-4.67065-1.78442-6.45508,0c-1.59741,1.59741-1.74878,4.0874-0.47876,5.86908l-5.10864,5.11041
					l-10.01563-5.7829v-5.58838c2.16162-0.3587,3.81885-2.22729,3.81885-4.48907c0-2.51709-2.04736-4.56494-4.56445-4.56494
					s-4.56494,2.04785-4.56494,4.56494c0,2.25879,1.65332,4.12592,3.81055,4.48816v5.59436l-10.01099,5.78015l-5.1084-5.10852
					c1.27344-1.78192,1.12329-4.2746-0.47534-5.87329c-1.78352-1.78352-4.67066-1.78442-6.45508,0
					c-1.77979,1.77979-1.77979,4.67578,0,6.45557c1.56406,1.56406,4.0296,1.79892,5.87134,0.4798l4.823,4.82281l-3.51172,2.02747
					v8.26807h-7.57495c-0.3606-2.1593-2.229-3.81445-4.48901-3.81445c-2.51709,0-4.56445,2.04785-4.56445,4.56494
					s2.04736,4.56494,4.56445,4.56494c2.2605,0,4.12891-1.6557,4.48926-3.81543h7.57471v8.26904l3.51611,2.03015l-4.82251,4.82404
					c-1.84099-1.32232-4.30896-1.09137-5.87622,0.47589c-1.77979,1.77979-1.77979,4.67578,0,6.45557
					c1.78352,1.78352,4.67066,1.78442,6.45508,0c1.59717-1.59723,1.74878-4.08685,0.47925-5.86853l5.10913-5.11066l10.00635,5.77753
					v5.59436c-2.15723,0.36224-3.81055,2.22937-3.81055,4.48816c0,2.51709,2.04785,4.56494,4.56494,4.56494
					s4.56445-2.04785,4.56445-4.56494c0-2.26178-1.65723-4.13037-3.81885-4.48907V65.0011l10.01514-5.78278l5.10962,5.10956
					c-1.27051,1.78168-1.11938,4.27222,0.47827,5.86981c1.78352,1.78352,4.67065,1.78442,6.45508,0
					c1.77979-1.77979,1.77979-4.67578,0-6.45557c-1.54381-1.5438-4.00891-1.81622-5.875-0.47693l-4.82324-4.8233l3.51563-2.02985
					v-8.26904h7.57471c0.36035,2.15973,2.22876,3.81543,4.48926,3.81543c2.51709,0,4.56494-2.04785,4.56494-4.56494
					S76.85205,42.82855,74.33496,42.82855z M64.05908,25.64984c1.19606-1.19505,3.13322-1.19975,4.33398,0
					c1.19482,1.19482,1.19482,3.13965,0,4.33447c-1.1582,1.15723-3.17578,1.15723-4.33398,0
					C62.86426,28.78949,62.86426,26.84467,64.05908,25.64984z M24.90625,29.98431c-1.19482-1.19482-1.19482-3.13965,0-4.33447
					c1.19606-1.19505,3.13322-1.19975,4.33398,0c1.19482,1.19482,1.19482,3.13965,0,4.33447
					C28.08203,31.14154,26.06445,31.14154,24.90625,29.98431z M18.96436,50.45844c-1.68994,0-3.06445-1.375-3.06445-3.06494
					s1.37451-3.06494,3.06445-3.06494s3.06494,1.375,3.06494,3.06494S20.6543,50.45844,18.96436,50.45844z M29.24023,69.13715
					c-1.1582,1.15723-3.17578,1.15723-4.33398,0c-1.19482-1.19482-1.19482-3.13965,0-4.33447
					c1.19606-1.19505,3.13322-1.19976,4.33398,0C30.43506,65.9975,30.43506,67.94232,29.24023,69.13715z M68.39307,64.80267
					c1.19482,1.19482,1.19482,3.13965,0,4.33447c-1.1582,1.15723-3.17578,1.15723-4.33398,0
					c-1.19482-1.19482-1.19482-3.13965,0-4.33447C65.25514,63.60762,67.1923,63.60292,68.39307,64.80267z M43.58496,19.70844
					c0-1.68994,1.375-3.06494,3.06494-3.06494s3.06445,1.375,3.06445,3.06494s-1.37451,3.06445-3.06445,3.06445
					S43.58496,21.39838,43.58496,19.70844z M49.71436,75.07855c0,1.68994-1.37451,3.06494-3.06445,3.06494
					s-3.06494-1.375-3.06494-3.06494s1.375-3.06445,3.06494-3.06445S49.71436,73.38861,49.71436,75.07855z M60.271,55.25775
					L46.6499,63.12201l-13.62158-7.86426V39.52924l13.62158-7.86426L60.271,39.52924V55.25775z M74.33496,50.45844
					c-1.68994,0-3.06494-1.375-3.06494-3.06494s1.375-3.06494,3.06494-3.06494s3.06494,1.375,3.06494,3.06494
					S76.0249,50.45844,74.33496,50.45844z"/><path d="M40.97656,47.39349c0,3.12842,2.54492,5.67334,5.67334,5.67334c3.12793,0,5.67285-2.54492,5.67285-5.67334
					s-2.54492-5.67334-5.67285-5.67334C43.52148,41.72015,40.97656,44.26508,40.97656,47.39349z M50.82275,47.39349
					c0,2.30127-1.87207,4.17334-4.17285,4.17334c-2.30127,0-4.17334-1.87207-4.17334-4.17334s1.87207-4.17334,4.17334-4.17334
					C48.95068,43.22015,50.82275,45.09222,50.82275,47.39349z"/></svg>