<?xml version="1.0" encoding="UTF-8"?>
<!DOCTYPE svg PUBLIC "-//W3C//DTD SVG 1.1//EN" "http://www.w3.org/Graphics/SVG/1.1/DTD/svg11.dtd">
<svg xmlns="http://www.w3.org/2000/svg" version="1.1" width="903px" height="1200px" style="shape-rendering:geometricPrecision; text-rendering:geometricPrecision; image-rendering:optimizeQuality; fill-rule:evenodd; clip-rule:evenodd" xmlns:xlink="http://www.w3.org/1999/xlink">
<g><path style="opacity:0.983" fill="#f0783d" d="M 529.5,118.5 C 532.556,127.886 534.223,137.552 534.5,147.5C 533.911,158.364 532.245,169.031 529.5,179.5C 514.878,213.506 488.878,231.173 451.5,232.5C 413.717,231.47 387.384,213.804 372.5,179.5C 369.701,168.872 368.035,158.038 367.5,147C 367.824,137.223 369.491,127.723 372.5,118.5C 382.306,91.867 400.972,74.7003 428.5,67C 456.74,60.6459 482.407,65.9792 505.5,83C 517.157,92.5171 525.157,104.35 529.5,118.5 Z"/></g>
<g><path style="opacity:0.969" fill="#1b529e" d="M 372.5,118.5 C 369.491,127.723 367.824,137.223 367.5,147C 368.035,158.038 369.701,168.872 372.5,179.5C 324.085,187.514 279.418,204.514 238.5,230.5C 221.228,242.773 205.894,257.106 192.5,273.5C 163.849,265.56 135.183,257.727 106.5,250C 106.043,249.586 105.709,249.086 105.5,248.5C 118.277,231.556 132.944,216.389 149.5,203C 202.652,164.607 261.652,138.941 326.5,126C 341.787,123.178 357.12,120.678 372.5,118.5 Z"/></g>
<g><path style="opacity:0.968" fill="#1b529e" d="M 529.5,118.5 C 598.91,126.755 663.577,148.255 723.5,183C 746.371,197.523 767.204,214.69 786,234.5C 789.692,239.025 793.192,243.692 796.5,248.5C 796.291,249.086 795.957,249.586 795.5,250C 766.784,257.74 738.117,265.573 709.5,273.5C 684.74,243.96 654.74,221.46 619.5,206C 590.707,193.464 560.707,184.63 529.5,179.5C 532.245,169.031 533.911,158.364 534.5,147.5C 534.223,137.552 532.556,127.886 529.5,118.5 Z"/></g>
<g><path style="opacity:0.983" fill="#7cc052" d="M 438.5,261.5 C 483.197,257.908 514.03,276.574 531,317.5C 541.8,357.204 531.3,389.704 499.5,415C 462.545,436.159 427.212,433.825 393.5,408C 365.817,378.715 359.65,345.215 375,307.5C 388.502,281.486 409.669,266.153 438.5,261.5 Z"/></g>
<g><path style="opacity:0.976" fill="#1a529e" d="M 71.5,344.5 C 103.833,344.5 136.167,344.5 168.5,344.5C 168.8,368.565 175.634,390.565 189,410.5C 209.347,438.186 234.847,459.686 265.5,475C 307.095,495.825 351.095,508.658 397.5,513.5C 397.5,494.167 397.5,474.833 397.5,455.5C 433.167,455.5 468.833,455.5 504.5,455.5C 504.5,474.833 504.5,494.167 504.5,513.5C 555.174,508.086 602.84,493.252 647.5,469C 675.131,453.037 697.964,431.87 716,405.5C 727.199,386.733 733.032,366.4 733.5,344.5C 765.833,344.5 798.167,344.5 830.5,344.5C 828.378,390.727 811.044,430.061 778.5,462.5C 741.419,497.88 698.753,524.38 650.5,542C 603.245,558.686 554.578,569.186 504.5,573.5C 504.5,603.167 504.5,632.833 504.5,662.5C 468.833,662.5 433.167,662.5 397.5,662.5C 397.5,632.833 397.5,603.167 397.5,573.5C 322.986,567.649 252.986,547.149 187.5,512C 157.927,495.111 132.094,473.611 110,447.5C 85.4213,417.655 72.5879,383.322 71.5,344.5 Z"/></g>
<g><path style="opacity:0.977" fill="#1a529e" d="M 429.5,686.5 C 516.292,684.131 599.958,698.631 680.5,730C 714.966,744.809 746.632,764.143 775.5,788C 794.933,805.376 810.1,825.876 821,849.5C 826.068,862.339 828.901,875.673 829.5,889.5C 829.167,891.833 828.833,894.167 828.5,896.5C 780.94,859.565 727.94,832.731 669.5,816C 523.833,778 378.167,778 232.5,816C 174.06,832.731 121.06,859.565 73.5,896.5C 72.3103,885.7 73.1436,875.034 76,864.5C 85.6865,834.297 102.52,808.797 126.5,788C 157.053,762.051 191.053,741.717 228.5,727C 293.385,702.754 360.385,689.254 429.5,686.5 Z M 327.5,846.5 C 337.161,847.454 342.661,852.787 344,862.5C 346.145,872.872 342.979,881.039 334.5,887C 323.163,889.329 316.33,884.829 314,873.5C 312.321,864.368 314.488,856.368 320.5,849.5C 322.885,848.339 325.219,847.339 327.5,846.5 Z M 271.5,847.5 C 275.182,847.335 278.848,847.501 282.5,848C 288.017,852.46 287.683,856.46 281.5,860C 278.207,860.826 274.874,861.326 271.5,861.5C 271.5,856.833 271.5,852.167 271.5,847.5 Z M 372.5,847.5 C 376.182,847.335 379.848,847.501 383.5,848C 389.729,852.171 390.062,856.837 384.5,862C 380.605,863.266 376.605,863.766 372.5,863.5C 372.5,858.167 372.5,852.833 372.5,847.5 Z M 416.5,847.5 C 437.614,845.411 446.114,854.744 442,875.5C 436.491,885.502 427.991,889.502 416.5,887.5C 416.5,874.167 416.5,860.833 416.5,847.5 Z M 520.5,854.5 C 523.005,858.855 525.005,863.521 526.5,868.5C 522.878,869.659 519.211,869.825 515.5,869C 518.012,864.45 519.678,859.617 520.5,854.5 Z M 271.5,870.5 C 276.08,870.113 280.414,870.947 284.5,873C 288.755,878.389 288.088,883.055 282.5,887C 278.848,887.499 275.182,887.665 271.5,887.5C 271.5,881.833 271.5,876.167 271.5,870.5 Z"/></g>
<g><path style="opacity:0.855" fill="#f0783d" d="M 263.5,837.5 C 270.508,837.334 277.508,837.5 284.5,838C 295.565,841.297 299.398,848.464 296,859.5C 294.859,861.609 293.359,863.442 291.5,865C 298.309,870.548 300.475,877.714 298,886.5C 295.632,891.435 291.799,894.602 286.5,896C 278,897.758 269.5,897.925 261,896.5C 260.5,877.17 260.333,857.836 260.5,838.5C 261.791,838.737 262.791,838.404 263.5,837.5 Z M 271.5,847.5 C 271.5,852.167 271.5,856.833 271.5,861.5C 274.874,861.326 278.207,860.826 281.5,860C 287.683,856.46 288.017,852.46 282.5,848C 278.848,847.501 275.182,847.335 271.5,847.5 Z M 271.5,870.5 C 271.5,876.167 271.5,881.833 271.5,887.5C 275.182,887.665 278.848,887.499 282.5,887C 288.088,883.055 288.755,878.389 284.5,873C 280.414,870.947 276.08,870.113 271.5,870.5 Z"/></g>
<g><path style="opacity:0.846" fill="#f0783d" d="M 320.5,837.5 C 337.704,833.823 349.204,840.156 355,856.5C 358.05,869.934 355.216,881.767 346.5,892C 335.894,898.517 324.894,899.184 313.5,894C 305.278,887.357 301.278,878.69 301.5,868C 301.176,853.445 307.509,843.279 320.5,837.5 Z M 327.5,846.5 C 325.219,847.339 322.885,848.339 320.5,849.5C 314.488,856.368 312.321,864.368 314,873.5C 316.33,884.829 323.163,889.329 334.5,887C 342.979,881.039 346.145,872.872 344,862.5C 342.661,852.787 337.161,847.454 327.5,846.5 Z"/></g>
<g><path style="opacity:0.837" fill="#f0783d" d="M 364.5,837.5 C 372.917,837.094 381.251,837.594 389.5,839C 394.876,841.04 398.043,844.873 399,850.5C 400.652,858.422 398.152,864.588 391.5,869C 393,869.833 394.167,871 395,872.5C 397.08,880.376 399.58,888.043 402.5,895.5C 402.291,896.086 401.957,896.586 401.5,897C 397.789,897.825 394.122,897.659 390.5,896.5C 388.364,889.426 386.031,882.426 383.5,875.5C 380.112,873.482 376.446,872.482 372.5,872.5C 372.5,880.833 372.5,889.167 372.5,897.5C 368.833,897.5 365.167,897.5 361.5,897.5C 361.5,877.833 361.5,858.167 361.5,838.5C 362.791,838.737 363.791,838.404 364.5,837.5 Z M 372.5,847.5 C 372.5,852.833 372.5,858.167 372.5,863.5C 376.605,863.766 380.605,863.266 384.5,862C 390.062,856.837 389.729,852.171 383.5,848C 379.848,847.501 376.182,847.335 372.5,847.5 Z"/></g>
<g><path style="opacity:0.844" fill="#f0783d" d="M 409.5,837.5 C 417.507,837.334 425.507,837.5 433.5,838C 443.856,840.36 450.689,846.526 454,856.5C 457.33,870.497 453.83,882.33 443.5,892C 439.323,894.059 434.99,895.726 430.5,897C 422.254,897.815 414.088,897.648 406,896.5C 405.5,877.17 405.333,857.836 405.5,838.5C 407.099,838.768 408.432,838.434 409.5,837.5 Z M 416.5,847.5 C 416.5,860.833 416.5,874.167 416.5,887.5C 427.991,889.502 436.491,885.502 442,875.5C 446.114,854.744 437.614,845.411 416.5,847.5 Z"/></g>
<g><path style="opacity:0.845" fill="#f0783d" d="M 460.5,837.5 C 471.5,837.5 482.5,837.5 493.5,837.5C 493.5,840.833 493.5,844.167 493.5,847.5C 486.167,847.5 478.833,847.5 471.5,847.5C 471.5,852.167 471.5,856.833 471.5,861.5C 478.833,861.5 486.167,861.5 493.5,861.5C 493.5,864.5 493.5,867.5 493.5,870.5C 486.167,870.5 478.833,870.5 471.5,870.5C 471.5,876.167 471.5,881.833 471.5,887.5C 479.5,887.5 487.5,887.5 495.5,887.5C 495.336,890.187 495.503,892.854 496,895.5C 502.347,876.445 508.847,857.445 515.5,838.5C 519.5,837.167 523.5,837.167 527.5,838.5C 533.868,857.577 540.535,876.577 547.5,895.5C 547.291,896.086 546.957,896.586 546.5,897C 542.789,897.825 539.122,897.659 535.5,896.5C 533.506,891.177 531.506,885.843 529.5,880.5C 523.946,879.194 518.446,879.194 513,880.5C 510.701,886.032 508.868,891.699 507.5,897.5C 491.92,897.24 476.253,897.24 460.5,897.5C 460.5,877.5 460.5,857.5 460.5,837.5 Z M 520.5,854.5 C 519.678,859.617 518.012,864.45 515.5,869C 519.211,869.825 522.878,869.659 526.5,868.5C 525.005,863.521 523.005,858.855 520.5,854.5 Z"/></g>
<g><path style="opacity:0.867" fill="#f0783d" d="M 548.5,837.5 C 552.167,837.5 555.833,837.5 559.5,837.5C 559.333,850.837 559.5,864.171 560,877.5C 562.389,887.597 568.223,890.263 577.5,885.5C 579.703,883.705 580.869,881.371 581,878.5C 582.362,864.874 582.862,851.208 582.5,837.5C 585.833,837.5 589.167,837.5 592.5,837.5C 592.667,852.504 592.5,867.504 592,882.5C 586.711,896.064 576.878,900.898 562.5,897C 556.307,894.807 552.141,890.641 550,884.5C 548.563,868.891 548.063,853.224 548.5,837.5 Z"/></g>
<g><path style="opacity:0.812" fill="#f0783d" d="M 597.5,837.5 C 601.514,837.334 605.514,837.501 609.5,838C 613.52,844.399 617.353,850.899 621,857.5C 624.486,851.198 627.986,844.865 631.5,838.5C 635.783,837.508 640.116,837.174 644.5,837.5C 639.321,847.371 633.655,857.037 627.5,866.5C 633,875.5 638.5,884.5 644,893.5C 644.49,894.793 644.657,896.127 644.5,897.5C 640.486,897.666 636.486,897.499 632.5,897C 628.233,890.402 624.4,883.569 621,876.5C 616.865,883.313 612.698,890.146 608.5,897C 604.514,897.499 600.514,897.666 596.5,897.5C 601.432,887.032 607.098,876.865 613.5,867C 608.323,857.399 602.656,848.066 596.5,839C 597.056,838.617 597.389,838.117 597.5,837.5 Z"/></g>
<g><path style="opacity:0.864" fill="#1a529e" d="M 655.5,943.5 C 659.167,943.5 662.833,943.5 666.5,943.5C 666.5,964.167 666.5,984.833 666.5,1005.5C 662.833,1005.5 659.167,1005.5 655.5,1005.5C 655.5,984.833 655.5,964.167 655.5,943.5 Z"/></g>
<g><path style="opacity:0.841" fill="#1a529e" d="M 167.5,944.5 C 174.23,944.226 180.897,944.726 187.5,946C 190.306,947.305 191.14,949.472 190,952.5C 189.636,955.249 188.303,957.249 186,958.5C 172.872,952.245 163.206,955.578 157,968.5C 153.6,981.192 157.766,990.025 169.5,995C 172.833,995.667 176.167,995.667 179.5,995C 182.155,993.885 184.821,993.218 187.5,993C 189.973,996.227 190.64,999.727 189.5,1003.5C 178.449,1007.62 167.449,1007.45 156.5,1003C 144.618,993.694 140.452,981.527 144,966.5C 147.595,954.398 155.429,947.065 167.5,944.5 Z"/></g>
<g><path style="opacity:0.841" fill="#1a529e" d="M 390.5,945.5 C 394.833,945.5 399.167,945.5 403.5,945.5C 403.5,953.167 403.5,960.833 403.5,968.5C 410.5,968.5 417.5,968.5 424.5,968.5C 424.5,960.833 424.5,953.167 424.5,945.5C 428.833,945.5 433.167,945.5 437.5,945.5C 437.5,965.5 437.5,985.5 437.5,1005.5C 433.167,1005.5 428.833,1005.5 424.5,1005.5C 424.5,996.833 424.5,988.167 424.5,979.5C 417.5,979.5 410.5,979.5 403.5,979.5C 403.5,988.167 403.5,996.833 403.5,1005.5C 399.167,1005.5 394.833,1005.5 390.5,1005.5C 390.5,985.5 390.5,965.5 390.5,945.5 Z"/></g>
<g><path style="opacity:0.728" fill="#1a529e" d="M 572.5,945.5 C 579.309,945.451 582.142,948.784 581,955.5C 578.091,958.394 574.591,959.227 570.5,958C 567.453,953.118 568.119,948.952 572.5,945.5 Z"/></g>
<g><path style="opacity:0.738" fill="#1a529e" d="M 677.5,945.5 C 682.992,944.737 685.992,947.07 686.5,952.5C 685.415,958.094 682.082,959.928 676.5,958C 672.354,953.5 672.687,949.333 677.5,945.5 Z"/></g>
<g><path style="opacity:0.82" fill="#1a529e" d="M 289.5,951.5 C 290.5,951.5 291.5,951.5 292.5,951.5C 292.5,954.833 292.5,958.167 292.5,961.5C 296.167,961.5 299.833,961.5 303.5,961.5C 303.784,964.777 303.451,967.943 302.5,971C 299.183,971.498 295.85,971.665 292.5,971.5C 292.334,978.841 292.5,986.174 293,993.5C 295.48,995.166 298.313,995.999 301.5,996C 302.833,999 302.833,1002 301.5,1005C 296.833,1005.67 292.167,1005.67 287.5,1005C 285.083,1003.34 283.25,1001.17 282,998.5C 281.5,989.506 281.334,980.506 281.5,971.5C 279.5,971.5 277.5,971.5 275.5,971.5C 275.5,968.167 275.5,964.833 275.5,961.5C 277.5,961.5 279.5,961.5 281.5,961.5C 281.192,959.076 281.526,956.743 282.5,954.5C 284.885,953.339 287.219,952.339 289.5,951.5 Z"/></g>
<g><path style="opacity:0.794" fill="#1a529e" d="M 598.5,951.5 C 599.5,951.5 600.5,951.5 601.5,951.5C 601.5,954.833 601.5,958.167 601.5,961.5C 604.833,961.5 608.167,961.5 611.5,961.5C 611.665,964.518 611.498,967.518 611,970.5C 607.943,971.451 604.777,971.784 601.5,971.5C 601.5,979.5 601.5,987.5 601.5,995.5C 604.5,995.5 607.5,995.5 610.5,995.5C 611.357,998.549 611.357,1001.55 610.5,1004.5C 605.869,1005.66 601.202,1005.83 596.5,1005C 592.99,1002.83 590.823,999.664 590,995.5C 589.5,987.507 589.334,979.507 589.5,971.5C 587.5,971.5 585.5,971.5 583.5,971.5C 583.5,968.167 583.5,964.833 583.5,961.5C 585.5,961.5 587.5,961.5 589.5,961.5C 589.5,959.167 589.5,956.833 589.5,954.5C 592.67,953.735 595.67,952.735 598.5,951.5 Z"/></g>
<g><path style="opacity:0.832" fill="#1a529e" d="M 207.5,960.5 C 224.397,960.747 231.73,969.414 229.5,986.5C 220.143,986.168 210.81,986.502 201.5,987.5C 203.412,993.546 207.579,996.546 214,996.5C 217.976,995.773 221.809,994.94 225.5,994C 226.432,997.085 227.099,1000.25 227.5,1003.5C 219.65,1005.48 211.65,1005.98 203.5,1005C 194.483,1000.82 190.15,993.652 190.5,983.5C 190.534,971.489 196.201,963.823 207.5,960.5 Z M 208.5,969.5 C 213.578,969.37 216.911,971.703 218.5,976.5C 213.167,977.833 207.833,977.833 202.5,976.5C 203.833,973.507 205.833,971.173 208.5,969.5 Z"/></g>
<g><path style="opacity:0.844" fill="#1a529e" d="M 252.5,960.5 C 260.729,959.403 266.895,962.403 271,969.5C 272.365,981.453 272.865,993.453 272.5,1005.5C 268.833,1005.5 265.167,1005.5 261.5,1005.5C 261.666,996.161 261.5,986.827 261,977.5C 257.906,969.697 253.239,968.697 247,974.5C 245.601,984.768 245.101,995.102 245.5,1005.5C 241.833,1005.5 238.167,1005.5 234.5,1005.5C 234.5,990.833 234.5,976.167 234.5,961.5C 237.833,961.5 241.167,961.5 244.5,961.5C 244.351,962.552 244.517,963.552 245,964.5C 247.255,962.501 249.755,961.168 252.5,960.5 Z"/></g>
<g><path style="opacity:0.795" fill="#1a529e" d="M 323.5,960.5 C 325.792,960.244 327.959,960.577 330,961.5C 330.498,964.817 330.665,968.15 330.5,971.5C 324.844,970.243 321.011,972.243 319,977.5C 318.5,986.827 318.334,996.161 318.5,1005.5C 314.563,1005.79 310.73,1005.46 307,1004.5C 306.5,990.171 306.333,975.837 306.5,961.5C 309.833,961.5 313.167,961.5 316.5,961.5C 316.281,962.675 316.614,963.675 317.5,964.5C 319.256,962.634 321.256,961.301 323.5,960.5 Z"/></g>
<g><path style="opacity:0.836" fill="#1a529e" d="M 346.5,960.5 C 363.565,960.529 370.898,969.196 368.5,986.5C 359.5,986.5 350.5,986.5 341.5,986.5C 342.595,993.077 346.595,996.411 353.5,996.5C 357.356,996.13 361.022,995.13 364.5,993.5C 366.524,996.667 366.857,1000 365.5,1003.5C 356.434,1006.29 347.434,1006.13 338.5,1003C 326.876,990.632 326.543,977.965 337.5,965C 340.324,962.921 343.324,961.421 346.5,960.5 Z M 348.5,969.5 C 354.026,969.36 357.026,972.027 357.5,977.5C 352.125,977.828 346.792,977.495 341.5,976.5C 342.883,973.116 345.217,970.783 348.5,969.5 Z"/></g>
<g><path style="opacity:0.84" fill="#1a529e" d="M 459.5,960.5 C 471.661,959.188 479.827,964.188 484,975.5C 487.299,997.866 477.799,1007.7 455.5,1005C 449.172,1002.52 445.006,998.018 443,991.5C 439.429,975.896 444.929,965.563 459.5,960.5 Z M 462.5,969.5 C 469.823,971.169 473.49,975.835 473.5,983.5C 473.114,993.671 468.114,997.504 458.5,995C 453.39,989.336 452.224,982.836 455,975.5C 456.822,972.497 459.322,970.497 462.5,969.5 Z"/></g>
<g><path style="opacity:0.814" fill="#1a529e" d="M 499.5,960.5 C 504.995,960.015 510.162,961.015 515,963.5C 515.988,967.185 514.988,970.185 512,972.5C 509.411,971.303 506.744,970.303 504,969.5C 498.986,971.311 498.486,973.811 502.5,977C 515.535,980.239 519.701,988.073 515,1000.5C 513.269,1002.62 511.102,1004.12 508.5,1005C 501.282,1006 494.282,1005.5 487.5,1003.5C 487.257,1000.12 487.924,996.951 489.5,994C 492.986,994.952 496.653,995.785 500.5,996.5C 504.983,996.085 506.316,993.752 504.5,989.5C 500.749,988.027 497.083,986.36 493.5,984.5C 487.89,978.857 487.057,972.523 491,965.5C 493.531,963.097 496.364,961.43 499.5,960.5 Z"/></g>
<g><path style="opacity:0.845" fill="#1a529e" d="M 540.5,960.5 C 551.322,959.167 558.822,963.501 563,973.5C 563.667,979.5 563.667,985.5 563,991.5C 557.598,1005.04 548.098,1009.04 534.5,1003.5C 533.504,1009.46 533.171,1015.46 533.5,1021.5C 529.833,1021.5 526.167,1021.5 522.5,1021.5C 522.759,1001.48 522.426,981.48 521.5,961.5C 525.167,961.5 528.833,961.5 532.5,961.5C 532.351,962.552 532.517,963.552 533,964.5C 535.255,962.501 537.755,961.168 540.5,960.5 Z M 540.5,970.5 C 549.019,970.187 553.019,974.354 552.5,983C 552.563,992.957 547.896,996.957 538.5,995C 533.273,989.366 532.107,982.866 535,975.5C 536.73,973.598 538.563,971.931 540.5,970.5 Z"/></g>
<g><path style="opacity:0.824" fill="#1a529e" d="M 625.5,960.5 C 634.525,958.909 641.358,961.909 646,969.5C 647.166,981.461 647.999,993.461 648.5,1005.5C 644.241,1006 640.241,1005.33 636.5,1003.5C 631.016,1005.51 625.35,1006.01 619.5,1005C 613.03,1000.87 610.863,995.041 613,987.5C 614.061,984.438 615.894,981.938 618.5,980C 623.901,977.683 629.568,976.183 635.5,975.5C 634.756,971.922 632.423,969.922 628.5,969.5C 625.008,970.535 621.675,971.868 618.5,973.5C 616.612,971.206 615.278,968.539 614.5,965.5C 617.895,962.964 621.562,961.298 625.5,960.5 Z M 628.5,985.5 C 631.167,985.5 633.833,985.5 636.5,985.5C 637.169,993.837 633.503,997.17 625.5,995.5C 622.942,991.246 623.942,987.913 628.5,985.5 Z"/></g>
<g><path style="opacity:0.836" fill="#1a529e" d="M 707.5,960.5 C 724.397,960.747 731.73,969.414 729.5,986.5C 720.143,986.168 710.81,986.502 701.5,987.5C 703.412,993.546 707.579,996.546 714,996.5C 717.976,995.773 721.809,994.94 725.5,994C 726.61,997.049 727.277,1000.22 727.5,1003.5C 719.65,1005.48 711.65,1005.98 703.5,1005C 694.6,1000.87 690.267,993.874 690.5,984C 690.348,971.689 696.015,963.855 707.5,960.5 Z M 708.5,969.5 C 714.215,969.341 717.548,972.008 718.5,977.5C 713.125,977.828 707.792,977.495 702.5,976.5C 703.833,973.507 705.833,971.173 708.5,969.5 Z"/></g>
<g><path style="opacity:0.823" fill="#1a529e" d="M 750.5,960.5 C 753.119,960.232 755.619,960.565 758,961.5C 758.498,964.817 758.665,968.15 758.5,971.5C 753.365,970.426 749.532,972.093 747,976.5C 745.609,986.1 745.109,995.767 745.5,1005.5C 741.833,1005.5 738.167,1005.5 734.5,1005.5C 734.5,990.833 734.5,976.167 734.5,961.5C 737.833,961.5 741.167,961.5 744.5,961.5C 744.351,962.552 744.517,963.552 745,964.5C 746.5,962.531 748.333,961.198 750.5,960.5 Z"/></g>
<g><path style="opacity:0.846" fill="#1a529e" d="M 569.5,961.5 C 573.167,961.5 576.833,961.5 580.5,961.5C 580.5,976.167 580.5,990.833 580.5,1005.5C 576.833,1005.5 573.167,1005.5 569.5,1005.5C 569.5,990.833 569.5,976.167 569.5,961.5 Z"/></g>
<g><path style="opacity:0.845" fill="#1a529e" d="M 674.5,961.5 C 678.167,961.5 681.833,961.5 685.5,961.5C 685.5,976.167 685.5,990.833 685.5,1005.5C 681.833,1005.5 678.167,1005.5 674.5,1005.5C 674.5,990.833 674.5,976.167 674.5,961.5 Z"/></g>
<g><path style="opacity:0.853" fill="#1a529e" d="M 230.5,1027.5 C 234.167,1027.5 237.833,1027.5 241.5,1027.5C 241.334,1034.51 241.5,1041.51 242,1048.5C 255.582,1041.96 264.249,1045.96 268,1060.5C 268.5,1070.16 268.666,1079.83 268.5,1089.5C 264.833,1089.5 261.167,1089.5 257.5,1089.5C 257.666,1080.49 257.5,1071.49 257,1062.5C 255.824,1056.66 252.324,1054.49 246.5,1056C 243.732,1057.76 242.232,1060.26 242,1063.5C 241.5,1072.16 241.334,1080.83 241.5,1089.5C 237.833,1089.5 234.167,1089.5 230.5,1089.5C 230.5,1068.83 230.5,1048.17 230.5,1027.5 Z"/></g>
<g><path style="opacity:0.95" fill="#1a529e" d="M 343.5,1027.5 C 346.833,1027.5 350.167,1027.5 353.5,1027.5C 353.5,1048.17 353.5,1068.83 353.5,1089.5C 350.167,1089.5 346.833,1089.5 343.5,1089.5C 343.5,1068.83 343.5,1048.17 343.5,1027.5 Z"/></g>
<g><path style="opacity:0.837" fill="#1a529e" d="M 201.5,1029.5 C 207.842,1029.33 214.175,1029.5 220.5,1030C 225.491,1030.31 227.325,1032.81 226,1037.5C 225.288,1039.85 224.121,1041.85 222.5,1043.5C 209.823,1037.46 199.99,1040.46 193,1052.5C 190.538,1075.55 200.372,1083.88 222.5,1077.5C 223.167,1077.83 223.833,1078.17 224.5,1078.5C 225.4,1080.93 226.066,1083.43 226.5,1086C 226.245,1087.33 225.578,1088.33 224.5,1089C 210.32,1094.07 197.487,1091.91 186,1082.5C 179.517,1071.97 177.851,1060.63 181,1048.5C 184.866,1038.79 191.699,1032.46 201.5,1029.5 Z"/></g>
<g><path style="opacity:0.865" fill="#1a529e" d="M 458.5,1029.5 C 466.685,1028.9 474.685,1029.73 482.5,1032C 491.138,1037.95 493.971,1046.12 491,1056.5C 488.164,1062.84 483.331,1066.67 476.5,1068C 472.514,1068.5 468.514,1068.67 464.5,1068.5C 464.5,1075.83 464.5,1083.17 464.5,1090.5C 460.5,1090.5 456.5,1090.5 452.5,1090.5C 452.333,1070.83 452.5,1051.16 453,1031.5C 454.948,1030.89 456.782,1030.22 458.5,1029.5 Z M 464.5,1040.5 C 468.68,1040.19 472.68,1040.86 476.5,1042.5C 480.352,1046.79 480.352,1051.12 476.5,1055.5C 472.68,1057.14 468.68,1057.81 464.5,1057.5C 464.5,1051.83 464.5,1046.17 464.5,1040.5 Z"/></g>
<g><path style="opacity:0.841" fill="#1a529e" d="M 283.5,1045.5 C 294.118,1042.77 301.952,1046.1 307,1055.5C 307.256,1066.86 307.756,1078.19 308.5,1089.5C 304.327,1090.04 300.494,1089.38 297,1087.5C 291.159,1090.88 284.992,1091.38 278.5,1089C 271.548,1082.55 270.715,1075.39 276,1067.5C 281.547,1062.65 288.047,1060.48 295.5,1061C 296.479,1059.22 296.146,1057.55 294.5,1056C 289.351,1054.52 284.351,1055.02 279.5,1057.5C 276.694,1055.59 275.528,1052.93 276,1049.5C 278.417,1047.87 280.917,1046.54 283.5,1045.5 Z M 292.5,1069.5 C 294.167,1069.5 295.833,1069.5 297.5,1069.5C 297.828,1075.87 294.994,1079.87 289,1081.5C 284.025,1079.67 283.192,1076.51 286.5,1072C 288.723,1071.43 290.723,1070.6 292.5,1069.5 Z"/></g>
<g><path style="opacity:0.833" fill="#1a529e" d="M 330.5,1045.5 C 333.5,1045.5 336.5,1045.5 339.5,1045.5C 339.5,1049.17 339.5,1052.83 339.5,1056.5C 334.365,1055.43 330.532,1057.09 328,1061.5C 326.583,1070.75 326.083,1080.09 326.5,1089.5C 322.833,1089.5 319.167,1089.5 315.5,1089.5C 315.5,1075.17 315.5,1060.83 315.5,1046.5C 319.351,1045.97 322.851,1046.64 326,1048.5C 327.652,1047.6 329.152,1046.6 330.5,1045.5 Z"/></g>
<g><path style="opacity:0.825" fill="#1a529e" d="M 373.5,1045.5 C 386.367,1043.01 394.533,1048.01 398,1060.5C 398.789,1064.09 398.622,1067.59 397.5,1071C 388.482,1071.17 379.482,1071.67 370.5,1072.5C 373.357,1079.75 378.691,1082.58 386.5,1081C 388.871,1080.27 391.205,1079.43 393.5,1078.5C 394.803,1081.04 395.803,1083.71 396.5,1086.5C 395.91,1087.8 394.91,1088.63 393.5,1089C 385.038,1091.24 376.704,1090.9 368.5,1088C 357.278,1077.49 355.778,1065.65 364,1052.5C 366.529,1049.12 369.696,1046.78 373.5,1045.5 Z M 377.5,1054.5 C 383.068,1054.41 386.068,1057.07 386.5,1062.5C 381.156,1062.67 375.823,1062.5 370.5,1062C 371.712,1058.29 374.046,1055.79 377.5,1054.5 Z"/></g>
<g><path style="opacity:0.811" fill="#1a529e" d="M 411.5,1045.5 C 415.514,1045.33 419.514,1045.5 423.5,1046C 425.847,1046.71 427.847,1047.88 429.5,1049.5C 428.27,1051.93 427.27,1054.43 426.5,1057C 423.417,1056.31 420.25,1055.48 417,1054.5C 412.801,1055.69 411.968,1057.86 414.5,1061C 427.083,1063.69 431.917,1071.19 429,1083.5C 426.738,1086.43 423.905,1088.6 420.5,1090C 415.833,1090.67 411.167,1090.67 406.5,1090C 403.629,1089.87 401.295,1088.7 399.5,1086.5C 400.686,1083.4 402.02,1080.4 403.5,1077.5C 407.378,1080.44 411.711,1081.61 416.5,1081C 420.646,1078.22 420.479,1075.72 416,1073.5C 410.123,1071.89 405.456,1068.56 402,1063.5C 400.227,1054.8 403.394,1048.8 411.5,1045.5 Z"/></g>
<g><path style="opacity:0.837" fill="#1a529e" d="M 506.5,1045.5 C 524.926,1044.28 532.926,1052.95 530.5,1071.5C 521.161,1071.33 511.827,1071.5 502.5,1072C 505.374,1079.3 510.708,1082.3 518.5,1081C 521.053,1080.24 523.553,1079.41 526,1078.5C 528.61,1082.02 528.776,1085.52 526.5,1089C 500.969,1095.18 489.802,1085.35 493,1059.5C 495.352,1052.65 499.852,1047.98 506.5,1045.5 Z M 510.5,1054.5 C 516.04,1054.38 519.04,1057.04 519.5,1062.5C 514.125,1062.83 508.792,1062.49 503.5,1061.5C 504.909,1058.09 507.242,1055.76 510.5,1054.5 Z"/></g>
<g><path style="opacity:0.851" fill="#1a529e" d="M 550.5,1045.5 C 553.167,1045.5 555.833,1045.5 558.5,1045.5C 558.5,1049.17 558.5,1052.83 558.5,1056.5C 555.333,1055.54 552.333,1056.2 549.5,1058.5C 549,1059.5 548.5,1060.5 548,1061.5C 546.647,1070.78 546.147,1080.11 546.5,1089.5C 542.833,1089.5 539.167,1089.5 535.5,1089.5C 535.5,1075.17 535.5,1060.83 535.5,1046.5C 538.833,1046.5 542.167,1046.5 545.5,1046.5C 545.351,1047.55 545.517,1048.55 546,1049.5C 547.492,1048.08 548.992,1046.75 550.5,1045.5 Z"/></g>
<g><path style="opacity:0.806" fill="#1a529e" d="M 577.5,1045.5 C 580.5,1045.5 583.5,1045.5 586.5,1045.5C 586.5,1049.17 586.5,1052.83 586.5,1056.5C 581.554,1055.21 577.721,1056.88 575,1061.5C 574.5,1070.83 574.334,1080.16 574.5,1089.5C 570.5,1089.5 566.5,1089.5 562.5,1089.5C 562.5,1075.17 562.5,1060.83 562.5,1046.5C 565.833,1046.5 569.167,1046.5 572.5,1046.5C 572.351,1047.55 572.517,1048.55 573,1049.5C 574.667,1048.27 576.167,1046.93 577.5,1045.5 Z"/></g>
<g><path style="opacity:0.833" fill="#1a529e" d="M 600.5,1045.5 C 618.927,1044.29 626.927,1052.95 624.5,1071.5C 615.5,1071.5 606.5,1071.5 597.5,1071.5C 599.483,1079.17 604.483,1082.34 612.5,1081C 615.172,1080.17 617.839,1079.33 620.5,1078.5C 622.963,1082.13 622.963,1085.63 620.5,1089C 612.824,1090.95 605.158,1090.95 597.5,1089C 589.555,1084.63 585.555,1077.79 585.5,1068.5C 585.794,1057.54 590.794,1049.87 600.5,1045.5 Z M 604.5,1054.5 C 610.026,1054.36 613.026,1057.03 613.5,1062.5C 608.125,1062.83 602.792,1062.49 597.5,1061.5C 598.909,1058.09 601.242,1055.76 604.5,1054.5 Z"/></g>
<g><path style="opacity:0.86" fill="#1a529e" d="M 645.5,1045.5 C 655.884,1043.27 663.051,1046.94 667,1056.5C 667.5,1067.49 667.667,1078.49 667.5,1089.5C 663.833,1089.5 660.167,1089.5 656.5,1089.5C 656.666,1080.16 656.5,1070.83 656,1061.5C 654.047,1055.47 650.213,1053.97 644.5,1057C 643.107,1058.17 642.273,1059.67 642,1061.5C 641.5,1070.83 641.334,1080.16 641.5,1089.5C 637.833,1089.5 634.167,1089.5 630.5,1089.5C 630.764,1075.14 630.431,1060.8 629.5,1046.5C 633.673,1045.96 637.506,1046.62 641,1048.5C 642.878,1047.95 644.378,1046.95 645.5,1045.5 Z"/></g>
<g><path style="opacity:0.809" fill="#1a529e" d="M 683.5,1045.5 C 689.667,1045.1 695.667,1045.77 701.5,1047.5C 701.424,1050.97 700.758,1054.31 699.5,1057.5C 696.449,1056.4 693.282,1055.73 690,1055.5C 684.982,1055.39 683.815,1057.23 686.5,1061C 692.287,1062.16 697.121,1064.99 701,1069.5C 704.946,1079.36 702.112,1086.19 692.5,1090C 685.964,1091.01 679.631,1090.34 673.5,1088C 672.654,1084.21 673.487,1080.71 676,1077.5C 679.944,1080.89 684.444,1082.06 689.5,1081C 692.167,1078.67 692.167,1076.33 689.5,1074C 682.181,1072.33 677.015,1068.17 674,1061.5C 673.311,1053.88 676.478,1048.54 683.5,1045.5 Z"/></g>
</svg>
