<svg xmlns="http://www.w3.org/2000/svg" width="32" height="32" viewBox="0 0 32 32"><path fill-rule="evenodd" d="M 9.5 7 C 8.67765 7 8 7.67765 8 8.5 C 8 9.32235 8.67765 10 9.5 10 A 0.50005 0.50005 0 1 0 9.5 9 C 9.21435 9 9 8.78565 9 8.5 C 9 8.21435 9.21435 8 9.5 8 L 11.869141 8 L 8.3378906 14.474609 C 7.6188288 14.169017 6.8291152 14 6 14 C 2.69222 14 0 16.69222 0 20 C 0 23.30778 2.69222 26 6 26 C 9.30778 26 12 23.30778 12 20 C 12 17.877214 10.887456 16.014139 9.21875 14.947266 L 11.099609 11.5 L 19.568359 11.5 L 16.021484 18.001953 L 16.001953 18 L 16.001953 18.001953 C 15.995931 18.001899 15.990409 18 15.984375 18 C 15.841221 18 15.701304 18.017826 15.566406 18.046875 L 14.837891 16.783203 L 15.154297 16.601562 L 15.070312 16.601562 A 0.50064474 0.50064474 0 1 0 15.019531 15.601562 L 15.019531 15.599609 A 0.50005 0.50005 0 0 0 14.769531 15.669922 L 13.039062 16.669922 A 0.50005 0.50005 0 1 0 13.539062 17.535156 L 13.972656 17.285156 L 14.675781 18.503906 C 14.255931 18.871441 13.984375 19.402573 13.984375 20 C 13.984375 21.092642 14.876332 21.988264 15.966797 21.998047 L 15.966797 22.001953 L 16.673828 21.966797 L 17.220703 22.912109 L 16.789062 23.162109 A 0.50050437 0.50050437 0 1 0 17.289062 24.029297 L 18.123047 23.546875 A 0.50050437 0.50050437 0 0 0 18.134766 23.541016 L 18.173828 23.517578 L 18.904297 23.095703 L 18.818359 23.095703 A 0.50005 0.50005 0 0 0 18.769531 22.095703 A 0.50005 0.50005 0 0 0 18.519531 22.162109 L 18.087891 22.412109 L 17.796875 21.908203 L 20.269531 21.783203 C 21.030498 24.223902 23.312429 26 26 26 C 29.30778 26 32 23.30778 32 20 C 32 16.69222 29.30778 14 26 14 C 25.224238 14 24.483993 14.154458 23.802734 14.423828 L 21.158203 10.677734 L 21.939453 9.2460938 L 22.230469 8.7539062 A 0.50005 0.50005 0 0 0 21.800781 8 L 19.464844 8 C 18.642494 8 17.964844 8.67765 17.964844 9.5 A 0.50005 0.50005 0 1 0 18.964844 9.5 C 18.964844 9.21435 19.179194 9 19.464844 9 L 20.933594 9 L 20.115234 10.5 L 11.646484 10.5 L 12.875 8.2460938 L 13.166016 7.7539062 A 0.50005 0.50005 0 0 0 12.736328 7 L 9.5 7 z M 20.625 11.654297 L 22.896484 14.875 C 21.658238 15.627513 20.708821 16.809786 20.269531 18.21875 L 17.128906 18.058594 L 20.625 11.654297 z M 6 15 C 6.6572885 15 7.2793056 15.134126 7.8535156 15.363281 L 6.1347656 18.513672 C 6.0897145 18.509517 6.0460538 18.5 6 18.5 C 5.17749 18.5 4.5 19.17749 4.5 20 C 4.5 20.8225 5.17749 21.5 6 21.5 C 6.8225 21.5 7.5 20.8225 7.5 20 C 7.5 19.582358 7.3245634 19.204795 7.0449219 18.931641 L 8.7421875 15.824219 C 10.100806 16.716781 11 18.24821 11 20 C 11 22.76734 8.76734 25 6 25 C 3.23266 25 1 22.76734 1 20 C 1 17.23266 3.23266 15 6 15 z M 26 15 C 28.76734 15 31 17.23266 31 20 C 31 22.76734 28.76734 25 26 25 C 23.843183 25 22.025645 23.63705 21.322266 21.728516 L 25.929688 21.492188 C 25.953492 21.493334 25.975934 21.5 26 21.5 C 26.8225 21.5 27.5 20.8225 27.5 20 C 27.5 19.514939 27.26047 19.085527 26.898438 18.810547 L 24.408203 15.28125 C 24.910469 15.112372 25.439835 15 26 15 z M 23.480469 15.701172 L 25.443359 18.482422 L 21.322266 18.271484 C 21.724523 17.181266 22.491455 16.280724 23.480469 15.701172 z M 15.984375 19 C 16.542585 19 16.984375 19.44179 16.984375 20 C 16.984375 20.554718 16.547398 20.992567 15.994141 20.998047 L 15.978516 20.998047 C 15.423345 20.994682 14.984375 20.556073 14.984375 20 C 14.984375 19.44179 15.426175 19 15.984375 19 z M 17.751953 19.089844 L 20.058594 19.208984 C 20.024073 19.468826 20 19.730892 20 20 C 20 20.268446 20.02424 20.531788 20.058594 20.791016 L 17.753906 20.908203 C 17.895591 20.634304 17.984375 20.327682 17.984375 20 C 17.984375 19.67077 17.894891 19.364692 17.751953 19.089844 z M 21.060547 19.259766 L 24.611328 19.441406 C 24.540329 19.615072 24.5 19.802137 24.5 20 C 24.5 20.197657 24.538514 20.387028 24.609375 20.560547 L 21.060547 20.740234 C 21.02481 20.498414 21 20.251967 21 20 C 21 19.747368 21.024625 19.502194 21.060547 19.259766 z M 6 19.5 C 6.28206 19.5 6.5 19.71793 6.5 20 C 6.5 20.28206 6.28206 20.5 6 20.5 C 5.71793 20.5 5.5 20.28206 5.5 20 C 5.5 19.71793 5.71793 19.5 6 19.5 z M 26.037109 19.507812 C 26.299786 19.527065 26.5 19.731227 26.5 20 C 26.5 20.28206 26.28206 20.5 26 20.5 C 25.99098 20.5 25.983493 20.496534 25.974609 20.496094 L 25.974609 20.490234 L 25.953125 20.492188 C 25.695395 20.468428 25.5 20.265369 25.5 20 C 25.5 19.73472 25.695538 19.533653 25.953125 19.509766 L 26.037109 19.513672 L 26.037109 19.507812 z " color="#000" font-family="sans-serif" font-weight="400" overflow="visible" style="line-height:normal;text-indent:0;text-align:start;text-decoration-line:none;text-decoration-style:solid;text-decoration-color:#000;text-transform:none;block-progression:tb;isolation:auto;mix-blend-mode:normal"/></svg>