<svg xmlns="http://www.w3.org/2000/svg" width="32" height="32" viewBox="0 0 32 32"><g transform="matrix(3.77953 0 0 3.77953 -199.196 -2774.174)"><g transform="translate(-4.762)"><path style="line-height:normal;text-indent:0;text-align:start;text-decoration-line:none;text-decoration-style:solid;text-decoration-color:#000;text-transform:none;block-progression:tb;white-space:normal;isolation:auto;mix-blend-mode:normal;solid-color:#000;solid-opacity:1" fill="#29a3ec" d="m 169.17418,672.13185 c -0.40411,0 -0.72858,0.32447 -0.72858,0.72857 0,0.40413 0.32447,0.72858 0.72858,0.72858 0.40411,0 0.72858,-0.32445 0.72858,-0.72858 0,-0.4041 -0.32447,-0.72857 -0.72858,-0.72857 z" color="#000" enable-background="accumulate" font-family="sans-serif" font-weight="400" overflow="visible" transform="matrix(-1.48516 0 0 1.50022 310.57 -270.013)"/><g transform="matrix(-1.48516 0 0 -1.50022 310.57 1748.861)"><path fill="none" stroke="#5a3392" stroke-linecap="round" stroke-linejoin="round" stroke-width=".177" d="m 169.6932,673.46514 a 0.80212951,0.79318905 0 0 1 -1.01868,0.0158 0.80212951,0.79318905 0 0 1 -0.2127,-0.98524 0.80212951,0.79318905 0 0 1 0.93641,-0.3969 0.80212951,0.79318905 0 0 1 0.57489,0.83172"/><ellipse cx="169.891" cy="673.219" fill="#5a3392" rx=".089" ry=".088"/></g><g transform="matrix(-1 0 0 1 118.637 0)"><path transform="matrix(-1.48516 0 0 1.50022 310.57 -270.013)" style="line-height:normal;text-indent:0;text-align:start;text-decoration-line:none;text-decoration-style:solid;text-decoration-color:#000;text-transform:none;block-progression:tb;white-space:normal;isolation:auto;mix-blend-mode:normal;solid-color:#000;solid-opacity:1" fill="#3cdef6" d="m 169.17418,672.29578 c -0.31318,0 -0.56465,0.25147 -0.56465,0.56464 0,0.3132 0.25147,0.56465 0.56465,0.56465 0.31318,0 0.56465,-0.25145 0.56465,-0.56465 0,-0.31317 -0.25147,-0.56464 -0.56465,-0.56464 z" color="#000" enable-background="accumulate" font-family="sans-serif" font-weight="400" overflow="visible"/><path style="line-height:normal;text-indent:0;text-align:start;text-decoration-line:none;text-decoration-style:solid;text-decoration-color:#000;text-transform:none;block-progression:tb;white-space:normal;isolation:auto;mix-blend-mode:normal;solid-color:#000;solid-opacity:1" fill="#fff" fill-rule="evenodd" d="m 59.707064,739.50755 a 0.1323049,0.1323049 0 0 0 -0.09766,0.0742 c -0.05637,0.11294 -0.09625,0.14912 -0.203125,0.20117 a 0.13276874,0.13276874 0 1 0 0.117187,0.23828 c 0.143216,-0.0697 0.248216,-0.17194 0.322266,-0.32031 a 0.1323049,0.1323049 0 0 0 -0.138672,-0.19336 z" color="#000" enable-background="accumulate" font-family="sans-serif" font-weight="400" overflow="visible"/></g></g><path d="m 169.17418,672.13185 c -0.40411,0 -0.72858,0.32447 -0.72858,0.72857 0,0.40413 0.32447,0.72858 0.72858,0.72858 0.40411,0 0.72858,-0.32445 0.72858,-0.72858 0,-0.4041 -0.32447,-0.72857 -0.72858,-0.72857 z" style="line-height:normal;text-indent:0;text-align:start;text-decoration-line:none;text-decoration-style:solid;text-decoration-color:#000;text-transform:none;block-progression:tb;white-space:normal;isolation:auto;mix-blend-mode:normal;solid-color:#000;solid-opacity:1" fill="#29a3ec" color="#000" enable-background="accumulate" font-family="sans-serif" font-weight="400" overflow="visible" transform="matrix(-1.48516 0 0 1.50022 310.57 -270.013)"/><g transform="matrix(-1.48516 0 0 -1.50022 310.57 1748.861)"><path fill="none" stroke="#5a3392" stroke-linecap="round" stroke-linejoin="round" stroke-width=".177" d="m 169.6932,673.46514 a 0.80212951,0.79318905 0 0 1 -1.01868,0.0158 0.80212951,0.79318905 0 0 1 -0.2127,-0.98524 0.80212951,0.79318905 0 0 1 0.93641,-0.3969 0.80212951,0.79318905 0 0 1 0.57489,0.83172"/><ellipse cx="169.891" cy="673.219" fill="#5a3392" rx=".089" ry=".088"/></g><g transform="matrix(-1 0 0 1 118.637 0)"><path d="m 169.17418,672.29578 c -0.31318,0 -0.56465,0.25147 -0.56465,0.56464 0,0.3132 0.25147,0.56465 0.56465,0.56465 0.31318,0 0.56465,-0.25145 0.56465,-0.56465 0,-0.31317 -0.25147,-0.56464 -0.56465,-0.56464 z" style="line-height:normal;text-indent:0;text-align:start;text-decoration-line:none;text-decoration-style:solid;text-decoration-color:#000;text-transform:none;block-progression:tb;white-space:normal;isolation:auto;mix-blend-mode:normal;solid-color:#000;solid-opacity:1" fill="#3cdef6" color="#000" enable-background="accumulate" font-family="sans-serif" font-weight="400" overflow="visible" transform="matrix(-1.48516 0 0 1.50022 310.57 -270.013)"/><path d="m 59.707064,739.50755 a 0.1323049,0.1323049 0 0 0 -0.09766,0.0742 c -0.05637,0.11294 -0.09625,0.14912 -0.203125,0.20117 a 0.13276874,0.13276874 0 1 0 0.117187,0.23828 c 0.143216,-0.0697 0.248216,-0.17194 0.322266,-0.32031 a 0.1323049,0.1323049 0 0 0 -0.138672,-0.19336 z" style="line-height:normal;text-indent:0;text-align:start;text-decoration-line:none;text-decoration-style:solid;text-decoration-color:#000;text-transform:none;block-progression:tb;white-space:normal;isolation:auto;mix-blend-mode:normal;solid-color:#000;solid-opacity:1" fill="#fff" fill-rule="evenodd" color="#000" enable-background="accumulate" font-family="sans-serif" font-weight="400" overflow="visible"/></g><path fill="none" stroke="#5a3392" stroke-linecap="round" stroke-linejoin="round" stroke-width=".265" d="M56.538624 736.51418l-.922325.13163M59.386094 739.36178l-.728945-3.20011.634607-.30842M58.789459 737.17529l-1.465397 1.96549-2.767972.15118 1.791041-1.96546zM57.201045 739.02568l-1.188878-2.37791"/></g></svg>