<svg xmlns="http://www.w3.org/2000/svg" width="32" height="32" viewBox="0 0 32 32"><g transform="scale(-1 1) rotate(45 -1549.831 1746.795)"><rect width="13" height="4" x="-1695.5" y="-563.638" fill="#cfe1eb"/><g transform="matrix(-1 0 0 1 -3378.5 0)"><rect width="2.5" height="4" x="-1705" y="-563.638" fill="#9ecbdb"/><rect width="3.455" height="10" x="-1702.5" y="-566.638" fill="#d1edf1"/><rect width="3.75" height="16" x="-1699.5" y="-569.638" fill="#9ecbdb"/></g><rect width="2.5" height="4" x="-1705" y="-563.638" fill="#9ecbdb"/><rect width="3.455" height="10" x="-1702.5" y="-566.638" fill="#d1edf1"/><rect width="4" height="16" x="-1699.5" y="-569.638" fill="#9ecbdb"/><g stroke="#586597" stroke-width=".938" transform="translate(-1706.158 -1666.185) scale(1.06579)"><g transform="matrix(-1 0 0 1 32 0)"><path fill="none" stroke-linecap="round" stroke-linejoin="round" d="M22.000001 1036.3622v7.5h3.499998v-15h-3.499998v3.75M25.500001 1041.1122h2.999998v-4.75"/><path fill="none" stroke-linecap="round" stroke-linejoin="round" d="m 28.500001,1038.1122 h 2.499998 v -3.5 h -2.499998 l -2e-6,-3 h -2.999998"/></g><path fill="none" d="M10 1034.6121H22M10 1038.1123H22"/><path fill="none" stroke-linecap="round" stroke-linejoin="round" d="M22.000001 1040.1122v3.75h3.499998v-15h-3.499998v7.5M25.500001 1041.1122h2.999998l.000002-3h2.499998v-3.5h-2.499998m-.000002 1.75v-4.75h-2.999998"/></g></g></svg>