<svg xmlns="http://www.w3.org/2000/svg" width="512" height="512"><g transform="translate(0 448)"><path fill="#e32d3c" d="M 336 30.03125 L 336 482.00391 A 240 240 0 0 0 496 256 A 240 240 0 0 0 336 30.03125 z " transform="translate(0 -448)"/><path fill="#fff" d="M 256 16 A 240 240 0 0 0 176 29.996094 L 176 481.96875 A 240 240 0 0 0 256 496 A 240 240 0 0 0 336 482.00391 L 336 30.03125 A 240 240 0 0 0 256 16 z " transform="translate(0 -448)"/><path fill="#2b4896" d="M 176 29.996094 A 240 240 0 0 0 16 256 A 240 240 0 0 0 176 481.96875 L 176 29.996094 z " transform="translate(0 -448)"/></g></svg>