<svg xmlns="http://www.w3.org/2000/svg" enable-background="new 0 0 92 92" viewBox="0 0 92 92"><path fill="#F6E2EE" d="M82.62566 17.51491h-20.6658c-4.4832 0-8.417 3.3816-8.686 7.8568-.2923 4.8596 3.5625 8.8919 8.3586 8.8919h20.666c4.4832 0 8.4168-3.3817 8.686-7.85682C91.27647 21.54721 87.42197 17.51491 82.62566 17.51491zM79.29456 59.63701h-14.0034c-4.4834 0-8.417 3.3816-8.686 7.85678-.2925 4.85962 3.5625 8.89182 8.3586 8.89182h14.0037c4.48309 0 8.4165-3.3815 8.6858-7.8567C87.94547 63.66931 84.09097 59.63701 79.29456 59.63701zM27.19427 31.46561H9.70156c-4.4832 0-8.4168 3.3816-8.686 7.8568-.2923 4.8596 3.5625 8.8919 8.3586 8.8919h18.1475c4.7961 0 8.6508-4.0323 8.3586-8.8919C35.61126 34.84721 31.67767 31.46561 27.19427 31.46561z"/><path fill="#FFF" d="M73.70426,78.04321h-55.1586c-2.1654,0-3.9207-1.75542-3.9207-3.9207v-55.1586
		c0-2.1654,1.7553-3.9207,3.9207-3.9207h55.1586c2.16531,0,3.9207,1.7553,3.9207,3.9207v55.1586
		C77.62496,76.28779,75.86957,78.04321,73.70426,78.04321z"/><path fill="#CF95C2" d="M77.62496 28.01511v-9.0512c0-2.1654-1.75529-3.9207-3.9209-3.9207h-55.1584c-2.1653 0-3.9207 1.7553-3.9207 3.9207v9.0512H77.62496zM14.62496 64.54731v9.5752c0 2.16528 1.7554 3.9207 3.9207 3.9207h55.1587c2.1653 0 3.92059-1.75542 3.92059-3.9207v-9.5752H14.62496z"/><path fill="#010101" d="M73.70426,14.04321h-0.0003h-55.1584c-2.7131,0-4.9207,2.2075-4.9207,4.9209
			c0,15.1109,0,52.3059,0,55.1582c0,2.7129,2.2072,4.9209,4.9207,4.9209h0.0002h55.1585c2.7131,0,4.9206-2.2075,4.9206-4.9209
			c0-3.697,0-40.0763,0-55.1582C78.62486,16.26321,76.42996,14.04321,73.70426,14.04321z M15.62486,18.96411
			c0-1.6104,1.3103-2.9209,2.9207-2.9209h55.1584c1.6101,0,2.9209,1.31,2.9209,2.9209v8.0512h-61V18.96411z M76.62486,74.12231
			c0,1.6103-1.3103,2.9209-2.9206,2.9209h-55.1585c-1.6183,0-2.9209-1.318-2.9209-2.9209v-8.5752h61V74.12231z M76.62486,63.54711
			h-61v-34.5318h61V63.54711z"/><polygon fill="#FFF" points="25.35 71.3 20.484 74.575 20.484 68.011"/><path fill="#FFF" d="M65.93497,71.79321h-35.9453c-0.2761,0-0.5-0.2237-0.5-0.5c0-0.27642,0.2239-0.5,0.5-0.5h35.9453
			c0.2761,0,0.5,0.22358,0.5,0.5C66.43497,71.5695,66.21107,71.79321,65.93497,71.79321z"/><circle cx="37.791" cy="71.293" r="1.995" fill="#FFF"/><circle cx="46.125" cy="45.869" r="10.116" fill="#CF95C2"/><path fill="#FFF" d="M51.36636,46.27579l-7.5172,4.67112c-0.3188,0.1981-0.7313-0.0312-0.7313-0.4066v-9.3422
			c0-0.3754,0.4124-0.6047,0.7313-0.4066l7.5172,4.6711C51.66777,45.64991,51.66777,46.08851,51.36636,46.27579z"/><circle cx="21.909" cy="21.529" r="2.483" fill="#FFF"/><circle cx="29.61" cy="21.529" r="2.483" fill="#FFF"/><circle cx="37.312" cy="21.529" r="2.483" fill="#FFF"/><circle cx="5.266" cy="60.184" r="2.975" fill="#DFEBF8"/><circle cx="28.325" cy="84.939" r="1.707" fill="#FDDDD6"/><circle cx="87.669" cy="44.837" r="1.707" fill="#84B0DE"/><circle cx="28.325" cy="7.061" r="1.707" fill="#FDBE5C"/></svg>