<svg xmlns="http://www.w3.org/2000/svg" width="26" height="26" viewBox="0 0 26 26"><g fill="#fff" transform="translate(5 -1031.362)"><circle cx="8" cy="1044.362" r="13" fill="#424242" fill-rule="evenodd"/><path fill="#1f212a" style="line-height:normal;text-indent:0;text-align:start;text-decoration-line:none;text-decoration-style:solid;text-decoration-color:#000;text-transform:none;block-progression:tb;isolation:auto;mix-blend-mode:normal" d="M 11.947266 25.947266 A 12.999996 12.999996 0 0 0 13 26 A 12.999996 12.999996 0 0 0 13.919922 25.966797 A 12.999996 12.999996 0 0 0 15.208984 25.810547 A 12.999996 12.999996 0 0 0 16.476562 25.525391 A 12.999996 12.999996 0 0 0 17.710938 25.117188 A 12.999996 12.999996 0 0 0 18.896484 24.585938 A 12.999996 12.999996 0 0 0 20.023438 23.939453 A 12.999996 12.999996 0 0 0 21.080078 23.183594 A 12.999996 12.999996 0 0 0 22.056641 22.326172 A 12.999996 12.999996 0 0 0 22.943359 21.375 A 12.999996 12.999996 0 0 0 23.728516 20.339844 A 12.999996 12.999996 0 0 0 24.408203 19.232422 A 12.999996 12.999996 0 0 0 24.974609 18.0625 A 12.999996 12.999996 0 0 0 25.419922 16.841797 A 12.999996 12.999996 0 0 0 25.740234 15.582031 A 12.999996 12.999996 0 0 0 25.935547 14.296875 A 12.999996 12.999996 0 0 0 26 13 A 12.999996 12.999996 0 0 0 25.966797 12.080078 A 12.999996 12.999996 0 0 0 25.951172 11.951172 L 21 7 L 5 7 L 5 7.5 L 5 19 L 11.947266 25.947266 z " color="#000" font-family="sans-serif" font-weight="400" transform="translate(-5 1031.362)"/><path style="line-height:normal;text-indent:0;text-align:start;text-decoration-line:none;text-decoration-style:solid;text-decoration-color:#000;text-transform:none;block-progression:tb;isolation:auto;mix-blend-mode:normal" d="M 0,2 0,2.5 0,14 16,14 16,2 0,2 Z M 1,3 15,3 15,13 1,13 1,3 Z M 6,4 C 3.7926444,4 2,5.7927 2,8 c 0,2.2074 1.7926444,4 4,4 l 4,0 c 2.207356,0 4,-1.7926 4,-4 C 14,5.7927 12.207356,4 10,4 L 6,4 Z m 0,1 4,0 c 1.670654,0 3,1.3294 3,3 0,1.6707 -1.329346,3 -3,3 L 6,11 C 4.3293458,11 3,9.6707 3,8 3,6.3294 4.3293458,5 6,5 Z M 6,6 C 4.9006454,6 4,6.9007 4,8 c 0,1.0994 0.9006454,2 2,2 l 4,0 C 11.099355,10 12,9.0994 12,8 12,6.9007 11.099355,6 10,6 L 6,6 Z m 0,1 4,0 c 0.562655,0 1,0.4374 1,1 0,0.5627 -0.437345,1 -1,1 L 6,9 C 5.437345,9 5,8.5627 5,8 5,7.4374 5.437345,7 6,7 Z" color="#000" font-family="sans-serif" font-weight="400" overflow="visible" transform="translate(0 1036.362)"/></g></svg>