<svg xmlns="http://www.w3.org/2000/svg" viewBox="0 0 24 24"><path fill="#303C42" d="M20.667 3.028l-8.5-3a.5.5 0 0 0-.334 0l-8.5 3A.5.5 0 0 0 3 3.5v6c0 7.765 1.151 10.603 8.775 14.446a.5.5 0 0 0 .45 0C19.85 20.103 21 17.265 21 9.5v-6a.5.5 0 0 0-.333-.472z"/><path fill="#1E88E5" d="M12 1.03L4 3.854V9.5c0 .905.015 1.733.052 2.5H12V1.03z"/><path fill="#01579B" d="M19.948 12c.037-.767.052-1.595.052-2.5V3.854L12 1.03V12h7.948z"/><path fill="#1E88E5" d="M12 12v10.94c6.194-3.158 7.678-5.402 7.948-10.94H12z"/><path fill="#01579B" d="M4.052 12c.27 5.538 1.754 7.782 7.948 10.94V12H4.052z"/><path d="M12 21c-7.052-3.595-8-5.002-8-12.44v.94c0 7.437.948 9.844 8 13.44 7.052-3.596 8-6.003 8-13.44v-.94c0 7.438-.948 8.845-8 12.44z" opacity=".1"/><linearGradient id="a" x1="1.494" x2="20.722" y1="6.619" y2="15.585" gradientUnits="userSpaceOnUse"><stop offset="0" stop-color="#FFF" stop-opacity=".2"/><stop offset="1" stop-color="#FFF" stop-opacity="0"/></linearGradient><path fill="url(#a)" d="M20.667 3.028l-8.5-3a.5.5 0 0 0-.334 0l-8.5 3A.5.5 0 0 0 3 3.5v6c0 7.765 1.151 10.603 8.775 14.446a.5.5 0 0 0 .45 0C19.85 20.103 21 17.265 21 9.5v-6a.5.5 0 0 0-.333-.472z"/></svg>