<?xml version="1.0" encoding="UTF-8"?>
<!DOCTYPE svg PUBLIC "-//W3C//DTD SVG 1.1//EN" "http://www.w3.org/Graphics/SVG/1.1/DTD/svg11.dtd">
<svg xmlns="http://www.w3.org/2000/svg" version="1.1" width="600px" height="211px" style="shape-rendering:geometricPrecision; text-rendering:geometricPrecision; image-rendering:optimizeQuality; fill-rule:evenodd; clip-rule:evenodd" xmlns:xlink="http://www.w3.org/1999/xlink">
<g><path style="opacity:0.909" fill="#f6f6f6" d="M 196.5,53.5 C 196.427,55.0269 197.094,56.0269 198.5,56.5C 199.481,58.396 200.481,60.396 201.5,62.5C 326.832,63.3333 452.165,63.8333 577.5,64C 588.938,66.6096 596.271,73.443 599.5,84.5C 599.5,108.833 599.5,133.167 599.5,157.5C 596.05,169.437 588.05,176.27 575.5,178C 443.833,178.333 312.167,178.667 180.5,179C 162.916,196.459 141.916,206.959 117.5,210.5C 109.167,210.5 100.833,210.5 92.5,210.5C 42.1708,201.339 11.6708,171.672 1,121.5C -3.55211,83.1517 8.28122,50.985 36.5,25C 65.5775,1.90147 98.2442,-5.09853 134.5,4C 160.152,11.9989 180.318,27.1656 195,49.5C 195.791,50.745 196.291,52.0783 196.5,53.5 Z"/></g>
<g><path style="opacity:1" fill="#1d1a1e" d="M 88.5,8.5 C 124.375,4.32787 154.542,15.3279 179,41.5C 186.224,50.2473 192.058,59.914 196.5,70.5C 323.499,71.3333 450.499,71.8333 577.5,72C 583.841,73.6748 588.341,77.5082 591,83.5C 591.962,108.883 591.629,134.216 590,159.5C 587.359,164.144 583.525,167.311 578.5,169C 444.832,169.167 311.165,169.667 177.5,170.5C 148.776,199.955 114.442,209.122 74.5,198C 37.3125,184.146 15.4792,157.646 9,118.5C 5.19232,74.6943 22.0257,41.5277 59.5,19C 68.8832,14.3753 78.5499,10.8753 88.5,8.5 Z"/></g>
<g><path style="opacity:1" fill="#fafafa" d="M 190.5,79.5 C 318.833,79.5 447.167,79.5 575.5,79.5C 578.758,80.921 581.258,83.2543 583,86.5C 583.667,108.833 583.667,131.167 583,153.5C 581.923,156.913 579.756,159.413 576.5,161C 442.167,161.333 307.833,161.667 173.5,162C 155.614,182.856 132.781,193.689 105,194.5C 57.8773,191.038 28.8773,166.371 18,120.5C 12.9604,74.4134 31.4604,41.58 73.5,22C 111.357,10.2767 144.19,18.4433 172,46.5C 180.269,56.3756 186.435,67.3756 190.5,79.5 Z"/></g>
<g><path style="opacity:1" fill="#1b181c" d="M 132.5,169.5 C 125.913,171.461 118.913,172.128 111.5,171.5C 111.5,170.167 111.5,168.833 111.5,167.5C 111.802,156.071 110.969,144.738 109,133.5C 102.424,141.654 96.0906,149.987 90,158.5C 89.2446,162.255 89.4113,165.922 90.5,169.5C 90.5,170.167 90.5,170.833 90.5,171.5C 80.985,171.827 71.6517,171.494 62.5,170.5C 67.8333,170.5 73.1667,170.5 78.5,170.5C 83.3822,160.067 87.7155,149.401 91.5,138.5C 90.8597,133.554 89.3597,128.887 87,124.5C 83.3258,120.493 79.3258,116.826 75,113.5C 70.7565,108.607 69.4231,102.94 71,96.5C 73.727,90.0456 76.727,83.7122 80,77.5C 81.1434,74.2231 81.9767,70.8898 82.5,67.5C 71.5376,71.8619 60.2043,75.0285 48.5,77C 43.937,80.5599 39.1037,83.7266 34,86.5C 33.3333,83.5 33.3333,80.5 34,77.5C 45.6253,71.8435 57.792,67.3435 70.5,64C 75.5064,61.4987 80.1731,58.4987 84.5,55C 89.8029,52.733 95.1362,50.5663 100.5,48.5C 98.1003,47.9146 96.1003,46.7479 94.5,45C 94.6448,44.228 94.9781,43.5613 95.5,43C 97.1341,42.5065 98.8008,42.3398 100.5,42.5C 100.972,34.8762 104.972,32.0429 112.5,34C 116.084,35.6638 117.751,38.4971 117.5,42.5C 116.448,46.2699 115.115,49.9366 113.5,53.5C 116.319,54.7427 118.986,56.2427 121.5,58C 133.167,58.6667 144.833,58.6667 156.5,58C 160.387,54.9702 164.72,53.9702 169.5,55C 170.218,56.9874 171.218,58.8208 172.5,60.5C 172.167,60.8333 171.833,61.1667 171.5,61.5C 170.389,60.3887 169.055,59.722 167.5,59.5C 159.179,61.657 150.846,63.8237 142.5,66C 131.167,66.3333 119.833,66.6667 108.5,67C 106.383,68.7309 104.883,70.8976 104,73.5C 100.912,81.6091 97.7456,89.6091 94.5,97.5C 96.3084,97.4914 97.9751,97.9914 99.5,99C 103.667,103.167 107.833,107.333 112,111.5C 113.922,115.663 116.588,119.33 120,122.5C 119.776,135.507 119.443,148.507 119,161.5C 122.642,165.648 127.142,168.314 132.5,169.5 Z"/></g>
<g><path style="opacity:0.22" fill="#787878" d="M 196.5,53.5 C 197.906,53.9731 198.573,54.9731 198.5,56.5C 197.094,56.0269 196.427,55.0269 196.5,53.5 Z"/></g>
<g><path style="opacity:1" fill="#09060a" d="M 575.5,79.5 C 447.167,79.5 318.833,79.5 190.5,79.5C 190.369,78.7611 190.536,78.0944 191,77.5C 319.264,78.1658 447.431,78.8325 575.5,79.5 Z"/></g>
<g><path style="opacity:1" fill="#1b181c" d="M 139.5,137.5 C 139.5,134.5 139.5,131.5 139.5,128.5C 143.833,128.5 148.167,128.5 152.5,128.5C 152.335,131.85 152.502,135.183 153,138.5C 154.667,139.833 156.333,139.833 158,138.5C 158.817,135.036 158.483,131.702 157,128.5C 152.92,125.543 148.753,122.71 144.5,120C 139.855,115.904 137.855,110.737 138.5,104.5C 138.496,94.3388 143.663,89.3388 154,89.5C 167.38,89.0425 173.213,95.3758 171.5,108.5C 166.833,108.5 162.167,108.5 157.5,108.5C 157.664,105.813 157.497,103.146 157,100.5C 155.667,99.1667 154.333,99.1667 153,100.5C 152.21,103.634 152.543,106.634 154,109.5C 161.004,113.33 167.004,118.33 172,124.5C 176.084,144.083 168.25,152.25 148.5,149C 143.026,147.034 140.026,143.201 139.5,137.5 Z"/></g>
<g><path style="opacity:1" fill="#636163" d="M 192.5,111.5 C 192.719,112.675 192.386,113.675 191.5,114.5C 190.503,106.862 190.169,99.1955 190.5,91.5C 186.167,91.5 181.833,91.5 177.5,91.5C 177.5,110.5 177.5,129.5 177.5,148.5C 176.503,129.341 176.17,110.007 176.5,90.5C 181.5,90.5 186.5,90.5 191.5,90.5C 191.175,97.6866 191.509,104.687 192.5,111.5 Z"/></g>
<g><path style="opacity:1" fill="#1a171b" d="M 192.5,111.5 C 193.402,108.293 194.402,105.127 195.5,102C 199.541,101.173 203.541,101.34 207.5,102.5C 205.427,108.385 203.761,114.385 202.5,120.5C 205.152,129.773 207.485,139.106 209.5,148.5C 204.833,148.5 200.167,148.5 195.5,148.5C 192.243,126.086 190.91,126.086 191.5,148.5C 186.833,148.5 182.167,148.5 177.5,148.5C 177.5,129.5 177.5,110.5 177.5,91.5C 181.833,91.5 186.167,91.5 190.5,91.5C 190.169,99.1955 190.503,106.862 191.5,114.5C 192.386,113.675 192.719,112.675 192.5,111.5 Z"/></g>
<g><path style="opacity:1" fill="#626062" d="M 226.5,91.5 C 221.833,91.5 217.167,91.5 212.5,91.5C 212.5,93.8333 212.5,96.1667 212.5,98.5C 211.527,96.0521 211.194,93.3854 211.5,90.5C 216.695,90.1795 221.695,90.5128 226.5,91.5 Z"/></g>
<g><path style="opacity:1" fill="#19171a" d="M 226.5,91.5 C 226.5,93.8333 226.5,96.1667 226.5,98.5C 221.833,98.5 217.167,98.5 212.5,98.5C 212.5,96.1667 212.5,93.8333 212.5,91.5C 217.167,91.5 221.833,91.5 226.5,91.5 Z"/></g>
<g><path style="opacity:1" fill="#757375" d="M 296.5,100.5 C 296.5,97.5 296.5,94.5 296.5,91.5C 293.5,91.5 290.5,91.5 287.5,91.5C 287.077,95.5506 287.744,99.3839 289.5,103C 289.43,103.765 289.097,104.265 288.5,104.5C 286.763,100.066 286.096,95.3993 286.5,90.5C 290.167,90.5 293.833,90.5 297.5,90.5C 297.813,94.0419 297.479,97.3752 296.5,100.5 Z"/></g>
<g><path style="opacity:1" fill="#19171a" d="M 296.5,100.5 C 295.973,105.362 293.306,108.362 288.5,109.5C 287.212,107.701 287.212,106.035 288.5,104.5C 289.097,104.265 289.43,103.765 289.5,103C 287.744,99.3839 287.077,95.5506 287.5,91.5C 290.5,91.5 293.5,91.5 296.5,91.5C 296.5,94.5 296.5,97.5 296.5,100.5 Z"/></g>
<g><path style="opacity:1" fill="#757375" d="M 326.5,102.5 C 326.5,98.8333 326.5,95.1667 326.5,91.5C 318.5,91.5 310.5,91.5 302.5,91.5C 302.5,110.5 302.5,129.5 302.5,148.5C 301.503,129.341 301.17,110.007 301.5,90.5C 310.167,90.5 318.833,90.5 327.5,90.5C 327.817,94.7016 327.483,98.7016 326.5,102.5 Z"/></g>
<g><path style="opacity:1" fill="#181619" d="M 326.5,102.5 C 323.5,102.5 320.5,102.5 317.5,102.5C 316.518,105.962 316.185,109.629 316.5,113.5C 319.833,113.5 323.167,113.5 326.5,113.5C 326.5,117.167 326.5,120.833 326.5,124.5C 323.5,124.5 320.5,124.5 317.5,124.5C 316.515,128.634 316.182,132.968 316.5,137.5C 320.167,137.5 323.833,137.5 327.5,137.5C 327.5,141.167 327.5,144.833 327.5,148.5C 319.167,148.5 310.833,148.5 302.5,148.5C 302.5,129.5 302.5,110.5 302.5,91.5C 310.5,91.5 318.5,91.5 326.5,91.5C 326.5,95.1667 326.5,98.8333 326.5,102.5 Z"/></g>
<g><path style="opacity:1" fill="#8a888a" d="M 415.5,148.5 C 415.5,129.5 415.5,110.5 415.5,91.5C 410.833,91.5 406.167,91.5 401.5,91.5C 401.5,110.5 401.5,129.5 401.5,148.5C 400.503,129.341 400.17,110.007 400.5,90.5C 405.833,90.5 411.167,90.5 416.5,90.5C 416.83,110.007 416.497,129.341 415.5,148.5 Z"/></g>
<g><path style="opacity:1" fill="#181519" d="M 415.5,148.5 C 410.833,148.5 406.167,148.5 401.5,148.5C 401.5,129.5 401.5,110.5 401.5,91.5C 406.167,91.5 410.833,91.5 415.5,91.5C 415.5,110.5 415.5,129.5 415.5,148.5 Z"/></g>
<g><path style="opacity:1" fill="#828183" d="M 474.5,95.5 C 469.833,95.5 465.167,95.5 460.5,95.5C 460.802,98.0593 460.468,100.393 459.5,102.5C 459.5,99.8333 459.5,97.1667 459.5,94.5C 464.695,94.1795 469.695,94.5128 474.5,95.5 Z"/></g>
<g><path style="opacity:1" fill="#1a171b" d="M 474.5,95.5 C 474.5,97.8333 474.5,100.167 474.5,102.5C 475.833,102.5 477.167,102.5 478.5,102.5C 478.5,104.833 478.5,107.167 478.5,109.5C 477.167,109.5 475.833,109.5 474.5,109.5C 474.172,120.014 474.506,130.347 475.5,140.5C 476.209,141.404 477.209,141.737 478.5,141.5C 478.5,143.833 478.5,146.167 478.5,148.5C 473.821,148.666 469.155,148.499 464.5,148C 461.778,146.728 460.444,144.561 460.5,141.5C 460.5,130.833 460.5,120.167 460.5,109.5C 459.5,109.5 458.5,109.5 457.5,109.5C 457.5,107.167 457.5,104.833 457.5,102.5C 458.167,102.5 458.833,102.5 459.5,102.5C 460.468,100.393 460.802,98.0593 460.5,95.5C 465.167,95.5 469.833,95.5 474.5,95.5 Z"/></g>
<g><path style="opacity:1" fill="#3c393d" d="M 481.5,90.5 C 486.5,90.5 491.5,90.5 496.5,90.5C 496.5,93.1667 496.5,95.8333 496.5,98.5C 491.5,98.5 486.5,98.5 481.5,98.5C 481.5,95.8333 481.5,93.1667 481.5,90.5 Z"/></g>
<g><path style="opacity:1" fill="#151216" d="M 482.5,91.5 C 486.833,91.5 491.167,91.5 495.5,91.5C 495.5,93.5 495.5,95.5 495.5,97.5C 491.167,97.5 486.833,97.5 482.5,97.5C 482.5,95.5 482.5,93.5 482.5,91.5 Z"/></g>
<g><path style="opacity:1" fill="#1c191d" d="M 211.5,101.5 C 216.5,101.5 221.5,101.5 226.5,101.5C 226.5,117.167 226.5,132.833 226.5,148.5C 221.5,148.5 216.5,148.5 211.5,148.5C 211.5,132.833 211.5,117.167 211.5,101.5 Z"/></g>
<g><path style="opacity:1" fill="#1b191c" d="M 250.5,100.5 C 256.07,99.4161 260.57,101.083 264,105.5C 269.674,99.2129 275.674,98.8795 282,104.5C 283.467,119.07 283.967,133.736 283.5,148.5C 278.833,148.5 274.167,148.5 269.5,148.5C 269.667,135.829 269.5,123.162 269,110.5C 267.921,108.606 266.587,108.273 265,109.5C 264.5,122.496 264.333,135.496 264.5,148.5C 259.833,148.5 255.167,148.5 250.5,148.5C 250.667,135.496 250.5,122.496 250,109.5C 248.413,108.273 247.079,108.606 246,110.5C 245.5,123.162 245.333,135.829 245.5,148.5C 240.833,148.5 236.167,148.5 231.5,148.5C 231.5,132.833 231.5,117.167 231.5,101.5C 236.167,101.5 240.833,101.5 245.5,101.5C 245.281,102.675 245.614,103.675 246.5,104.5C 247.909,103.151 249.243,101.818 250.5,100.5 Z"/></g>
<g><path style="opacity:1" fill="#1b191c" d="M 344.5,124.5 C 344.301,127.941 344.801,131.274 346,134.5C 346.494,132.866 346.66,131.199 346.5,129.5C 346.883,120.139 347.55,110.806 348.5,101.5C 352.833,101.5 357.167,101.5 361.5,101.5C 361.167,104.833 360.833,108.167 360.5,111.5C 359.028,115.919 358.362,120.586 358.5,125.5C 356.909,133.071 355.909,140.738 355.5,148.5C 348.833,148.5 342.167,148.5 335.5,148.5C 334.019,132.764 332.019,117.097 329.5,101.5C 333.833,101.5 338.167,101.5 342.5,101.5C 342.969,109.186 343.635,116.853 344.5,124.5 Z"/></g>
<g><path style="opacity:1" fill="#1c1a1d" d="M 373.5,100.5 C 383.069,98.712 390.569,101.712 396,109.5C 396.667,118.5 396.667,127.5 396,136.5C 395.883,141.902 393.383,145.736 388.5,148C 383.238,149.439 377.904,149.772 372.5,149C 367.901,147.402 365.068,144.235 364,139.5C 363.097,128.774 363.431,118.107 365,107.5C 367.464,104.519 370.297,102.186 373.5,100.5 Z"/></g>
<g><path style="opacity:1" fill="#1e1b1f" d="M 420.5,101.5 C 425.5,101.5 430.5,101.5 435.5,101.5C 435.333,114.504 435.5,127.504 436,140.5C 437,141.833 438,141.833 439,140.5C 439.5,127.504 439.667,114.504 439.5,101.5C 444.5,101.5 449.5,101.5 454.5,101.5C 454.5,117.167 454.5,132.833 454.5,148.5C 449.5,148.5 444.5,148.5 439.5,148.5C 439.649,147.448 439.483,146.448 439,145.5C 433.942,150.383 428.609,150.716 423,146.5C 422.333,145.167 421.667,143.833 421,142.5C 420.5,128.837 420.333,115.171 420.5,101.5 Z"/></g>
<g><path style="opacity:1" fill="#1a171b" d="M 481.5,101.5 C 486.5,101.5 491.5,101.5 496.5,101.5C 496.5,117.167 496.5,132.833 496.5,148.5C 491.5,148.5 486.5,148.5 481.5,148.5C 481.5,132.833 481.5,117.167 481.5,101.5 Z"/></g>
<g><path style="opacity:1" fill="#1c191d" d="M 510.5,100.5 C 517.196,99.8487 523.529,101.015 529.5,104C 531.123,106.08 532.623,108.246 534,110.5C 534.667,119.833 534.667,129.167 534,138.5C 532.474,144.026 528.974,147.526 523.5,149C 518.079,149.839 512.746,149.506 507.5,148C 504.894,146.062 503.061,143.562 502,140.5C 501.333,130.167 501.333,119.833 502,109.5C 503.688,105.315 506.521,102.315 510.5,100.5 Z"/></g>
<g><path style="opacity:1" fill="#1e1c1f" d="M 558.5,100.5 C 564.448,99.5282 568.948,101.528 572,106.5C 572.5,120.496 572.667,134.496 572.5,148.5C 567.5,148.5 562.5,148.5 557.5,148.5C 557.667,135.496 557.5,122.496 557,109.5C 556,108.167 555,108.167 554,109.5C 553.5,122.496 553.333,135.496 553.5,148.5C 548.5,148.5 543.5,148.5 538.5,148.5C 538.5,132.833 538.5,117.167 538.5,101.5C 543.5,101.5 548.5,101.5 553.5,101.5C 553.351,102.552 553.517,103.552 554,104.5C 555.397,102.93 556.897,101.596 558.5,100.5 Z"/></g>
<g><path style="opacity:1" fill="#e9e8e9" d="M 378.5,108.5 C 379.5,108.5 380.5,108.5 381.5,108.5C 381.5,119.167 381.5,129.833 381.5,140.5C 380.178,140.67 379.011,140.337 378,139.5C 377.192,129.09 377.359,118.757 378.5,108.5 Z"/></g>
<g><path style="opacity:1" fill="#f0f0f0" d="M 516.5,108.5 C 517.496,108.414 518.329,108.748 519,109.5C 519.667,119.833 519.667,130.167 519,140.5C 518,141.833 517,141.833 516,140.5C 515.192,129.757 515.358,119.09 516.5,108.5 Z"/></g>
<g><path style="opacity:1" fill="#939293" d="M 457.5,102.5 C 457.5,104.833 457.5,107.167 457.5,109.5C 458.5,109.5 459.5,109.5 460.5,109.5C 460.5,120.167 460.5,130.833 460.5,141.5C 459.506,131.347 459.172,121.014 459.5,110.5C 458.5,110.5 457.5,110.5 456.5,110.5C 456.194,107.615 456.527,104.948 457.5,102.5 Z"/></g>
<g><path style="opacity:1" fill="#c3c3c4" d="M 478.5,109.5 C 477.791,110.404 476.791,110.737 475.5,110.5C 475.5,120.5 475.5,130.5 475.5,140.5C 474.506,130.347 474.172,120.014 474.5,109.5C 475.833,109.5 477.167,109.5 478.5,109.5 Z"/></g>
<g><path style="opacity:1" fill="#b0aeb0" d="M 317.5,102.5 C 317.5,105.833 317.5,109.167 317.5,112.5C 320.713,112.19 323.713,112.523 326.5,113.5C 323.167,113.5 319.833,113.5 316.5,113.5C 316.185,109.629 316.518,105.962 317.5,102.5 Z"/></g>
<g><path style="opacity:1" fill="#b4b3b4" d="M 360.5,111.5 C 360.638,116.414 359.972,121.081 358.5,125.5C 358.362,120.586 359.028,115.919 360.5,111.5 Z"/></g>
<g><path style="opacity:1" fill="#8b898b" d="M 344.5,124.5 C 345.167,126.167 345.833,127.833 346.5,129.5C 346.66,131.199 346.494,132.866 346,134.5C 344.801,131.274 344.301,127.941 344.5,124.5 Z"/></g>
<g><path style="opacity:1" fill="#6a686b" d="M 152.5,128.5 C 148.167,128.5 143.833,128.5 139.5,128.5C 139.5,131.5 139.5,134.5 139.5,137.5C 138.521,134.375 138.187,131.042 138.5,127.5C 143.363,127.181 148.03,127.514 152.5,128.5 Z"/></g>
<g><path style="opacity:1" fill="#f8f8f8" d="M 111.5,167.5 C 110.596,168.209 110.263,169.209 110.5,170.5C 103.745,170.793 97.0779,170.46 90.5,169.5C 89.4113,165.922 89.2446,162.255 90,158.5C 96.0906,149.987 102.424,141.654 109,133.5C 110.969,144.738 111.802,156.071 111.5,167.5 Z"/></g>
<g><path style="opacity:1" fill="#858486" d="M 317.5,124.5 C 317.5,128.5 317.5,132.5 317.5,136.5C 321.167,136.5 324.833,136.5 328.5,136.5C 328.817,140.702 328.483,144.702 327.5,148.5C 327.5,144.833 327.5,141.167 327.5,137.5C 323.833,137.5 320.167,137.5 316.5,137.5C 316.182,132.968 316.515,128.634 317.5,124.5 Z"/></g>
<g><path style="opacity:1" fill="#828082" d="M 475.5,140.5 C 476.833,140.5 478.167,140.5 479.5,140.5C 479.806,143.385 479.473,146.052 478.5,148.5C 478.5,146.167 478.5,143.833 478.5,141.5C 477.209,141.737 476.209,141.404 475.5,140.5 Z"/></g>
<g><path style="opacity:1" fill="#8b8a8c" d="M 62.5,170.5 C 71.6517,171.494 80.985,171.827 90.5,171.5C 92.099,171.232 93.4324,171.566 94.5,172.5C 83.4798,172.832 72.4798,172.499 61.5,171.5C 61.6236,170.893 61.9569,170.56 62.5,170.5 Z"/></g>
<g><path style="opacity:1" fill="#575558" d="M 111.5,167.5 C 111.5,168.833 111.5,170.167 111.5,171.5C 118.913,172.128 125.913,171.461 132.5,169.5C 137.452,170.119 142.452,170.786 147.5,171.5C 129.846,172.5 112.179,172.833 94.5,172.5C 93.4324,171.566 92.099,171.232 90.5,171.5C 90.5,170.833 90.5,170.167 90.5,169.5C 97.0779,170.46 103.745,170.793 110.5,170.5C 110.263,169.209 110.596,168.209 111.5,167.5 Z"/></g>
</svg>
