<svg xmlns="http://www.w3.org/2000/svg" viewBox="0 0 24 24"><path fill="#303C42" d="M23.5 12H22v-1.5a.5.5 0 0 0-.5-.5H20V7.5a.5.5 0 0 0-.5-.5H18V6h1.5a.5.5 0 0 0 .5-.5v-2a.5.5 0 0 0-.5-.5h-2a.5.5 0 0 0-.5.5V5h-1.5a.5.5 0 0 0-.5.5V7H9V5.5a.5.5 0 0 0-.5-.5H7V3.5a.5.5 0 0 0-.5-.5h-2a.5.5 0 0 0-.5.5v2a.5.5 0 0 0 .5.5H6v1H4.5a.5.5 0 0 0-.5.5V10H2.5a.5.5 0 0 0-.5.5V12H.5a.5.5 0 0 0-.5.5v6a.5.5 0 0 0 .5.5h2a.5.5 0 0 0 .5-.5V15h1v3.5a.5.5 0 0 0 .5.5H6v1.5a.5.5 0 0 0 .5.5h4a.5.5 0 0 0 .5-.5v-2a.5.5 0 0 0-.5-.5H7v-1h10v1h-3.5a.5.5 0 0 0-.5.5v2a.5.5 0 0 0 .5.5h4a.5.5 0 0 0 .5-.5V19h1.5a.5.5 0 0 0 .5-.5V15h1v3.5a.5.5 0 0 0 .5.5h2a.5.5 0 0 0 .5-.5v-6a.5.5 0 0 0-.5-.5z"/><path fill="#9CCC65" d="M7 19h3v1H7zM14 19h3v1h-3zM23 18h-1v-3.5a.5.5 0 00-.5-.5h-2a.5.5 0 00-.5.5V18h-1v-1.5a.5.5 0 00-.5-.5h-11a.5.5 0 00-.5.5V18H5v-3.5a.5.5 0 00-.5-.5h-2a.5.5 0 00-.5.5V18H1v-5h1.5a.5.5 0 00.5-.5V11h1.5a.5.5 0 00.5-.5V8h1.5a.5.5 0 00.5-.5V6h1v1.5a.5.5 0 00.5.5h7a.5.5 0 00.5-.5V6h1v1.5a.5.5 0 00.5.5H19v2.5a.5.5 0 00.5.5H21v1.5a.5.5 0 00.5.5H23v5z"/><path fill="#303C42" d="M8.5 9h-2a.5.5 0 0 0-.5.5v2a.5.5 0 0 0 .5.5h2a.5.5 0 0 0 .5-.5v-2a.5.5 0 0 0-.5-.5z"/><path fill="#9CCC65" d="M18 4h1v1h-1zM5 4h1v1H5z"/><path fill="#303C42" d="M17.5 9h-2a.5.5 0 0 0-.5.5v2a.5.5 0 0 0 .5.5h2a.5.5 0 0 0 .5-.5v-2a.5.5 0 0 0-.5-.5z"/><linearGradient id="a" x1="2.156" x2="24.415" y1="7.342" y2="17.722" gradientUnits="userSpaceOnUse"><stop offset="0" stop-color="#FFF" stop-opacity=".2"/><stop offset="1" stop-color="#FFF" stop-opacity="0"/></linearGradient><path fill="url(#a)" d="M23.5 12H22v-1.5a.5.5 0 0 0-.5-.5H20V7.5a.5.5 0 0 0-.5-.5H18V6h1.5a.5.5 0 0 0 .5-.5v-2a.5.5 0 0 0-.5-.5h-2a.5.5 0 0 0-.5.5V5h-1.5a.5.5 0 0 0-.5.5V7H9V5.5a.5.5 0 0 0-.5-.5H7V3.5a.5.5 0 0 0-.5-.5h-2a.5.5 0 0 0-.5.5v2a.5.5 0 0 0 .5.5H6v1H4.5a.5.5 0 0 0-.5.5V10H2.5a.5.5 0 0 0-.5.5V12H.5a.5.5 0 0 0-.5.5v6a.5.5 0 0 0 .5.5h2a.5.5 0 0 0 .5-.5V15h1v3.5a.5.5 0 0 0 .5.5H6v1.5a.5.5 0 0 0 .5.5h4a.5.5 0 0 0 .5-.5v-2a.5.5 0 0 0-.5-.5H7v-1h10v1h-3.5a.5.5 0 0 0-.5.5v2a.5.5 0 0 0 .5.5h4a.5.5 0 0 0 .5-.5V19h1.5a.5.5 0 0 0 .5-.5V15h1v3.5a.5.5 0 0 0 .5.5h2a.5.5 0 0 0 .5-.5v-6a.5.5 0 0 0-.5-.5z"/></svg>