<svg xmlns="http://www.w3.org/2000/svg" enable-background="new 0 0 64 64" viewBox="0 0 64 64"><path d="M28 16v2c0 2.2 1.8 4 4 4s4-1.8 4-4v-2c0-2.2-1.8-4-4-4S28 13.8 28 16zM27.6 58.5L31 40.8c.1-.5.5-.8 1-.8s.9.3 1 .8l3.4 17.7c.2.8 1 1.5 1.9 1.5.6 0 2.4-.5 2-2.4L37.2 38H26.9l-3.1 19.6c-.3 1.8 1.3 2.4 1.9 2.4C26.6 60 27.4 59.4 27.6 58.5z"/><path d="M21.3 17.4l3.7 9.3 1.9 9.3h10.4l1.9-9.3c0 0 0 0 0 0l3.7-9.2c.2-.4.3-.9.3-1.4V9c0-.5-.5-1-1-1s-1 .5-1 1v6c0 .1-4.1 10.4-4.1 10.4C36.8 25.8 36.4 26 36 26h-8c-.4 0-.8-.3-.9-.6 0 0-4.1-10.2-4.1-10.4V9c0-.5-.5-1-1-1s-1 .5-1 1v7.1C21 16.6 21.1 17 21.3 17.4zM62 60h-2c-.6 0-1 .4-1 1s.4 1 1 1h2c.6 0 1-.4 1-1S62.6 60 62 60zM56 60H20c-.5 0-1 .5-1 1s.5 1 1 1h36c.5 0 1-.5 1-1S56.5 60 56 60zM16 60H2c-.6 0-1 .4-1 1s.4 1 1 1h14c.6 0 1-.4 1-1S16.6 60 16 60z"/><polygon points="25 10 39 10 39 8 25 8"/><rect width="6" height="2" x="45" y="8"/><rect width="2" height="14" x="53" y="2"/><rect width="2" height="10" x="57" y="4"/><path d="M63,9c0-0.5-0.5-1-1-1h-1v2h1C62.5,10,63,9.5,63,9z"/><polygon points="19 8 13 8 13 10 19 10"/><rect width="2" height="14" x="9" y="2"/><rect width="2" height="10" x="5" y="4"/><path d="M2,10h1V8H2C1.5,8,1,8.5,1,9S1.5,10,2,10z"/></svg>